# MagicaVoxel @ Ephtracy

# group
o 

# material
mtllib Player_3.mtl
usemtl palette

# normals
vn -1 0 0
vn 1 0 0
vn 0 0 1
vn 0 0 -1
vn 0 -1 0
vn 0 1 0

# texcoords
vt 0.0917969 0.5
vt 0.173828 0.5
vt 0.775391 0.5
vt 0.802734 0.5
vt 0.994141 0.5

# verts
v -0.5 0.1 0
v -0.5 0.1 -0.3
v -0.5 0.2 -0.3
v -0.5 0.2 -0.4
v -0.5 0.3 -0.2
v -0.5 0.3 -0.4
v -0.5 0.5 0
v -0.5 0.5 -0.2
v -0.4 0.2 0.1
v -0.4 0.2 0
v -0.4 0.3 -0.2
v -0.4 0.3 -0.4
v -0.4 0.5 0.1
v -0.4 0.5 0
v -0.4 0.5 -0.2
v -0.4 0.5 -0.3
v -0.4 0.5 -0.4
v -0.4 0.6 0.1
v -0.4 0.6 0
v -0.4 0.6 -0.1
v -0.4 0.6 -0.3
v -0.4 0.7 0.1
v -0.4 0.7 0
v -0.4 0.7 -0.1
v -0.4 0.8 0.1
v -0.4 0.8 0
v -0.3 0 0
v -0.3 0 -0.2
v -0.3 0.1 0.1
v -0.3 0.1 0
v -0.3 0.1 -0.2
v -0.3 0.1 -0.3
v -0.3 0.2 0.1
v -0.3 0.2 0
v -0.3 0.2 -0.2
v -0.3 0.2 -0.3
v -0.3 0.2 -0.4
v -0.3 0.3 0.2
v -0.3 0.3 0.1
v -0.3 0.3 -0.3
v -0.3 0.3 -0.4
v -0.3 0.3 -0.5
v -0.3 0.5 0.2
v -0.3 0.5 0.1
v -0.3 0.5 0
v -0.3 0.5 -0.3
v -0.3 0.5 -0.4
v -0.3 0.5 -0.5
v -0.3 0.6 0.1
v -0.3 0.6 0
v -0.3 0.6 -0.1
v -0.3 0.6 -0.3
v -0.3 0.6 -0.4
v -0.3 0.7 0
v -0.3 0.7 -0.1
v -0.3 0.7 -0.3
v -0.3 0.8 0
v -0.3 0.8 -0.1
v -0.2 0 0.1
v -0.2 0 0
v -0.2 0.1 0.1
v -0.2 0.1 0
v -0.2 0.1 -0.3
v -0.2 0.1 -0.4
v -0.2 0.2 0.2
v -0.2 0.2 0.1
v -0.2 0.2 -0.3
v -0.2 0.2 -0.4
v -0.2 0.2 -0.5
v -0.2 0.3 0.2
v -0.2 0.3 0.1
v -0.2 0.3 -0.4
v -0.2 0.3 -0.5
v -0.2 0.5 0.2
v -0.2 0.5 0.1
v -0.2 0.5 -0.4
v -0.2 0.5 -0.5
v -0.2 0.6 0.2
v -0.2 0.6 0.1
v -0.2 0.6 -0.3
v -0.2 0.6 -0.4
v -0.2 0.6 -0.5
v -0.2 0.7 -0.1
v -0.2 0.7 -0.2
v -0.2 0.7 -0.3
v -0.2 0.7 -0.4
v -0.2 0.8 -0.1
v -0.2 0.9 -0.1
v -0.2 0.9 -0.2
v -0.1 0.5 0.5
v -0.1 0.5 0.2
v -0.1 0.6 0.5
v -0.1 0.6 0.2
v -0.1 0.6 0.1
v -0.1 0.7 0.2
v -0.1 0.7 0.1
v -0.1 0.8 0
v -0.1 0.8 -0.1
v -0.1 0.9 0
v -0.1 0.9 -0.1
v -0.1 0.9 -0.2
v -0.1 0.9 -0.3
v -0.1 1 -0.1
v -0.1 1 -0.3
v 0 0.8 -0.2
v 0 0.8 -0.3
v 0 0.9 -0.2
v 0 0.9 -0.3
v 0.1 0 0.1
v 0.1 0 -0.2
v 0.1 0.1 0.1
v 0.1 0.1 0
v 0.1 0.1 -0.2
v 0.1 0.7 0.1
v 0.1 0.7 0
v 0.1 0.7 -0.1
v 0.1 0.7 -0.2
v 0.1 0.8 0.1
v 0.1 0.8 0
v 0.1 0.8 -0.1
v 0.1 0.8 -0.2
v 0.2 0.7 0
v 0.2 0.7 -0.1
v 0.2 0.8 0
v 0.2 0.8 -0.1
v 0.4 0.1 -0.2
v 0.4 0.1 -0.3
v 0.4 0.2 -0.2
v 0.4 0.2 -0.3
v 0.4 0.2 -0.4
v 0.4 0.3 -0.3
v 0.4 0.3 -0.4
v -0.4 0.1 -0.2
v -0.4 0.1 -0.3
v -0.4 0.2 -0.2
v -0.4 0.2 -0.3
v -0.4 0.2 -0.4
v -0.4 0.3 -0.3
v -0.4 0.3 -0.4
v -0.1 0 0.1
v -0.1 0 -0.2
v -0.1 0.1 0.1
v -0.1 0.1 0
v -0.1 0.1 -0.2
v -0.1 0.7 0.1
v -0.1 0.7 0
v -0.1 0.7 -0.1
v -0.1 0.7 -0.2
v -0.1 0.8 0.1
v -0.1 0.8 0
v -0.1 0.8 -0.1
v -0.1 0.8 -0.2
v 0.1 0.5 0.5
v 0.1 0.5 0.2
v 0.1 0.6 0.5
v 0.1 0.6 0.2
v 0.1 0.6 0.1
v 0.1 0.7 0.2
v 0.1 0.7 0.1
v 0.1 0.7 0
v 0.1 0.7 -0.1
v 0.1 0.8 0
v 0.1 0.8 -0.2
v 0.1 0.8 -0.3
v 0.1 0.9 0
v 0.1 0.9 -0.1
v 0.1 0.9 -0.2
v 0.1 1 -0.1
v 0.1 1 -0.3
v 0.2 0 0.1
v 0.2 0 0
v 0.2 0.1 0.1
v 0.2 0.1 0
v 0.2 0.1 -0.3
v 0.2 0.1 -0.4
v 0.2 0.2 0.2
v 0.2 0.2 0.1
v 0.2 0.2 -0.3
v 0.2 0.2 -0.4
v 0.2 0.2 -0.5
v 0.2 0.3 0.2
v 0.2 0.3 0.1
v 0.2 0.3 -0.4
v 0.2 0.3 -0.5
v 0.2 0.5 0.2
v 0.2 0.5 0.1
v 0.2 0.5 -0.4
v 0.2 0.5 -0.5
v 0.2 0.6 0.2
v 0.2 0.6 0.1
v 0.2 0.6 -0.3
v 0.2 0.6 -0.4
v 0.2 0.6 -0.5
v 0.2 0.7 -0.1
v 0.2 0.7 -0.2
v 0.2 0.7 -0.3
v 0.2 0.7 -0.4
v 0.2 0.8 -0.1
v 0.2 0.9 -0.1
v 0.2 0.9 -0.2
v 0.3 0 0
v 0.3 0 -0.2
v 0.3 0.1 0.1
v 0.3 0.1 0
v 0.3 0.1 -0.2
v 0.3 0.1 -0.3
v 0.3 0.2 0.1
v 0.3 0.2 0
v 0.3 0.2 -0.2
v 0.3 0.2 -0.3
v 0.3 0.2 -0.4
v 0.3 0.3 0.2
v 0.3 0.3 0.1
v 0.3 0.3 -0.3
v 0.3 0.3 -0.4
v 0.3 0.3 -0.5
v 0.3 0.5 0.2
v 0.3 0.5 0.1
v 0.3 0.5 0
v 0.3 0.5 -0.3
v 0.3 0.5 -0.4
v 0.3 0.5 -0.5
v 0.3 0.6 0.1
v 0.3 0.6 0
v 0.3 0.6 -0.1
v 0.3 0.6 -0.3
v 0.3 0.6 -0.4
v 0.3 0.7 0
v 0.3 0.7 -0.1
v 0.3 0.7 -0.3
v 0.3 0.8 0
v 0.3 0.8 -0.1
v 0.4 0.2 0.1
v 0.4 0.2 0
v 0.4 0.3 -0.2
v 0.4 0.3 -0.4
v 0.4 0.5 0.1
v 0.4 0.5 0
v 0.4 0.5 -0.2
v 0.4 0.5 -0.3
v 0.4 0.5 -0.4
v 0.4 0.6 0.1
v 0.4 0.6 0
v 0.4 0.6 -0.1
v 0.4 0.6 -0.3
v 0.4 0.7 0.1
v 0.4 0.7 0
v 0.4 0.7 -0.1
v 0.4 0.8 0.1
v 0.4 0.8 0
v 0.5 0.1 0
v 0.5 0.1 -0.3
v 0.5 0.2 -0.3
v 0.5 0.2 -0.4
v 0.5 0.3 -0.2
v 0.5 0.3 -0.4
v 0.5 0.5 0
v 0.5 0.5 -0.2
v -0.1 0.5 0.5
v -0.1 0.6 0.5
v 0.1 0.5 0.5
v 0.1 0.6 0.5
v -0.3 0.3 0.2
v -0.3 0.5 0.2
v -0.2 0.2 0.2
v -0.2 0.3 0.2
v -0.2 0.5 0.2
v -0.2 0.6 0.2
v -0.1 0.3 0.2
v -0.1 0.4 0.2
v -0.1 0.5 0.2
v -0.1 0.6 0.2
v -0.1 0.7 0.2
v 0.1 0.3 0.2
v 0.1 0.4 0.2
v 0.1 0.5 0.2
v 0.1 0.6 0.2
v 0.1 0.7 0.2
v 0.2 0.2 0.2
v 0.2 0.3 0.2
v 0.2 0.5 0.2
v 0.2 0.6 0.2
v 0.3 0.3 0.2
v 0.3 0.5 0.2
v -0.4 0.2 0.1
v -0.4 0.5 0.1
v -0.4 0.6 0.1
v -0.4 0.7 0.1
v -0.4 0.8 0.1
v -0.3 0.1 0.1
v -0.3 0.2 0.1
v -0.3 0.3 0.1
v -0.3 0.5 0.1
v -0.3 0.6 0.1
v -0.2 0 0.1
v -0.2 0.1 0.1
v -0.2 0.2 0.1
v -0.2 0.3 0.1
v -0.2 0.5 0.1
v -0.2 0.6 0.1
v -0.1 0 0.1
v -0.1 0.1 0.1
v -0.1 0.6 0.1
v -0.1 0.7 0.1
v -0.1 0.8 0.1
v 0.1 0 0.1
v 0.1 0.1 0.1
v 0.1 0.6 0.1
v 0.1 0.7 0.1
v 0.1 0.8 0.1
v 0.2 0 0.1
v 0.2 0.1 0.1
v 0.2 0.2 0.1
v 0.2 0.3 0.1
v 0.2 0.5 0.1
v 0.2 0.6 0.1
v 0.3 0.1 0.1
v 0.3 0.2 0.1
v 0.3 0.3 0.1
v 0.3 0.5 0.1
v 0.3 0.6 0.1
v 0.4 0.2 0.1
v 0.4 0.5 0.1
v 0.4 0.6 0.1
v 0.4 0.7 0.1
v 0.4 0.8 0.1
v -0.5 0.1 0
v -0.5 0.5 0
v -0.4 0.1 0
v -0.4 0.2 0
v -0.4 0.5 0
v -0.4 0.6 0
v -0.3 0 0
v -0.3 0.1 0
v -0.3 0.2 0
v -0.3 0.5 0
v -0.3 0.6 0
v -0.2 0 0
v -0.2 0.1 0
v -0.1 0.7 0
v -0.1 0.8 0
v -0.1 0.9 0
v 0.1 0.7 0
v 0.1 0.8 0
v 0.1 0.9 0
v 0.2 0 0
v 0.2 0.1 0
v 0.3 0 0
v 0.3 0.1 0
v 0.3 0.2 0
v 0.3 0.5 0
v 0.3 0.6 0
v 0.4 0.1 0
v 0.4 0.2 0
v 0.4 0.5 0
v 0.4 0.6 0
v 0.5 0.1 0
v 0.5 0.5 0
v -0.2 0.8 -0.1
v -0.2 0.9 -0.1
v -0.1 0.8 -0.1
v -0.1 0.9 -0.1
v -0.1 1 -0.1
v 0.1 0.7 -0.1
v 0.1 0.9 -0.1
v 0.1 1 -0.1
v 0.2 0.7 -0.1
v 0.2 0.8 -0.1
v 0.2 0.9 -0.1
v -0.4 0.7 0
v -0.4 0.8 0
v -0.3 0.7 0
v -0.3 0.8 0
v 0.1 0.7 0
v 0.1 0.8 0
v 0.2 0.7 0
v 0.2 0.8 0
v 0.3 0.7 0
v 0.3 0.8 0
v 0.4 0.7 0
v 0.4 0.8 0
v -0.4 0.6 -0.1
v -0.4 0.7 -0.1
v -0.3 0.6 -0.1
v -0.3 0.7 -0.1
v -0.3 0.8 -0.1
v -0.2 0.7 -0.1
v -0.2 0.8 -0.1
v -0.1 0.7 -0.1
v -0.1 0.8 -0.1
v 0.1 0.7 -0.1
v 0.1 0.8 -0.1
v 0.2 0.7 -0.1
v 0.2 0.8 -0.1
v 0.3 0.6 -0.1
v 0.3 0.7 -0.1
v 0.3 0.8 -0.1
v 0.4 0.6 -0.1
v 0.4 0.7 -0.1
v -0.5 0.3 -0.2
v -0.5 0.5 -0.2
v -0.4 0.1 -0.2
v -0.4 0.2 -0.2
v -0.4 0.3 -0.2
v -0.4 0.5 -0.2
v -0.3 0 -0.2
v -0.3 0.1 -0.2
v -0.3 0.2 -0.2
v -0.2 0.7 -0.2
v -0.2 0.9 -0.2
v -0.1 0 -0.2
v -0.1 0.1 -0.2
v -0.1 0.7 -0.2
v -0.1 0.8 -0.2
v -0.1 0.9 -0.2
v 0 0.8 -0.2
v 0 0.9 -0.2
v 0.1 0 -0.2
v 0.1 0.1 -0.2
v 0.1 0.7 -0.2
v 0.1 0.8 -0.2
v 0.1 0.9 -0.2
v 0.2 0.7 -0.2
v 0.2 0.9 -0.2
v 0.3 0 -0.2
v 0.3 0.1 -0.2
v 0.3 0.2 -0.2
v 0.4 0.1 -0.2
v 0.4 0.2 -0.2
v 0.4 0.3 -0.2
v 0.4 0.5 -0.2
v 0.5 0.3 -0.2
v 0.5 0.5 -0.2
v -0.5 0.1 -0.3
v -0.5 0.2 -0.3
v -0.4 0.1 -0.3
v -0.4 0.2 -0.3
v -0.4 0.3 -0.3
v -0.4 0.5 -0.3
v -0.4 0.6 -0.3
v -0.3 0.1 -0.3
v -0.3 0.2 -0.3
v -0.3 0.3 -0.3
v -0.3 0.5 -0.3
v -0.3 0.6 -0.3
v -0.3 0.7 -0.3
v -0.2 0.1 -0.3
v -0.2 0.2 -0.3
v -0.2 0.6 -0.3
v -0.2 0.7 -0.3
v -0.1 0.9 -0.3
v -0.1 1 -0.3
v 0 0.8 -0.3
v 0 0.9 -0.3
v 0.1 0.8 -0.3
v 0.1 1 -0.3
v 0.2 0.1 -0.3
v 0.2 0.2 -0.3
v 0.2 0.6 -0.3
v 0.2 0.7 -0.3
v 0.3 0.1 -0.3
v 0.3 0.2 -0.3
v 0.3 0.3 -0.3
v 0.3 0.5 -0.3
v 0.3 0.6 -0.3
v 0.3 0.7 -0.3
v 0.4 0.1 -0.3
v 0.4 0.2 -0.3
v 0.4 0.3 -0.3
v 0.4 0.5 -0.3
v 0.4 0.6 -0.3
v 0.5 0.1 -0.3
v 0.5 0.2 -0.3
v -0.5 0.2 -0.4
v -0.5 0.3 -0.4
v -0.4 0.2 -0.4
v -0.4 0.3 -0.4
v -0.4 0.5 -0.4
v -0.3 0.2 -0.4
v -0.3 0.3 -0.4
v -0.3 0.5 -0.4
v -0.3 0.6 -0.4
v -0.2 0.1 -0.4
v -0.2 0.2 -0.4
v -0.2 0.3 -0.4
v -0.2 0.5 -0.4
v -0.2 0.6 -0.4
v -0.2 0.7 -0.4
v 0.2 0.1 -0.4
v 0.2 0.2 -0.4
v 0.2 0.3 -0.4
v 0.2 0.5 -0.4
v 0.2 0.6 -0.4
v 0.2 0.7 -0.4
v 0.3 0.2 -0.4
v 0.3 0.3 -0.4
v 0.3 0.5 -0.4
v 0.3 0.6 -0.4
v 0.4 0.2 -0.4
v 0.4 0.3 -0.4
v 0.4 0.5 -0.4
v 0.5 0.2 -0.4
v 0.5 0.3 -0.4
v -0.3 0.3 -0.5
v -0.3 0.5 -0.5
v -0.2 0.2 -0.5
v -0.2 0.3 -0.5
v -0.2 0.5 -0.5
v -0.2 0.6 -0.5
v 0.2 0.2 -0.5
v 0.2 0.3 -0.5
v 0.2 0.5 -0.5
v 0.2 0.6 -0.5
v 0.3 0.3 -0.5
v 0.3 0.5 -0.5
v -0.2 0 0.1
v -0.1 0 0.1
v 0.1 0 0.1
v 0.2 0 0.1
v -0.3 0 0
v -0.2 0 0
v 0.2 0 0
v 0.3 0 0
v -0.3 0 -0.2
v -0.1 0 -0.2
v 0.1 0 -0.2
v 0.3 0 -0.2
v -0.3 0.1 0.1
v -0.2 0.1 0.1
v -0.1 0.1 0.1
v 0.1 0.1 0.1
v 0.2 0.1 0.1
v 0.3 0.1 0.1
v -0.5 0.1 0
v -0.4 0.1 0
v -0.3 0.1 0
v -0.2 0.1 0
v -0.1 0.1 0
v 0.1 0.1 0
v 0.2 0.1 0
v 0.3 0.1 0
v 0.4 0.1 0
v 0.5 0.1 0
v -0.4 0.1 -0.2
v -0.3 0.1 -0.2
v -0.1 0.1 -0.2
v 0.1 0.1 -0.2
v 0.3 0.1 -0.2
v 0.4 0.1 -0.2
v -0.5 0.1 -0.3
v -0.4 0.1 -0.3
v -0.3 0.1 -0.3
v -0.2 0.1 -0.3
v 0.2 0.1 -0.3
v 0.3 0.1 -0.3
v 0.4 0.1 -0.3
v 0.5 0.1 -0.3
v -0.2 0.1 -0.4
v 0.2 0.1 -0.4
v -0.2 0.2 0.2
v 0.2 0.2 0.2
v -0.4 0.2 0.1
v -0.3 0.2 0.1
v -0.2 0.2 0.1
v 0.2 0.2 0.1
v 0.3 0.2 0.1
v 0.4 0.2 0.1
v -0.4 0.2 0
v -0.3 0.2 0
v 0.3 0.2 0
v 0.4 0.2 0
v -0.4 0.2 -0.2
v -0.3 0.2 -0.2
v 0.3 0.2 -0.2
v 0.4 0.2 -0.2
v -0.5 0.2 -0.3
v -0.4 0.2 -0.3
v -0.3 0.2 -0.3
v -0.2 0.2 -0.3
v 0.2 0.2 -0.3
v 0.3 0.2 -0.3
v 0.4 0.2 -0.3
v 0.5 0.2 -0.3
v -0.5 0.2 -0.4
v -0.4 0.2 -0.4
v -0.3 0.2 -0.4
v -0.2 0.2 -0.4
v 0.2 0.2 -0.4
v 0.3 0.2 -0.4
v 0.4 0.2 -0.4
v 0.5 0.2 -0.4
v -0.2 0.2 -0.5
v 0.2 0.2 -0.5
v -0.3 0.3 0.2
v -0.2 0.3 0.2
v 0.2 0.3 0.2
v 0.3 0.3 0.2
v -0.3 0.3 0.1
v -0.2 0.3 0.1
v 0.2 0.3 0.1
v 0.3 0.3 0.1
v -0.4 0.3 -0.3
v -0.3 0.3 -0.3
v 0.3 0.3 -0.3
v 0.4 0.3 -0.3
v -0.4 0.3 -0.4
v -0.3 0.3 -0.4
v -0.2 0.3 -0.4
v 0.2 0.3 -0.4
v 0.3 0.3 -0.4
v 0.4 0.3 -0.4
v -0.3 0.3 -0.5
v -0.2 0.3 -0.5
v 0.2 0.3 -0.5
v 0.3 0.3 -0.5
v -0.1 0.5 0.5
v 0.1 0.5 0.5
v -0.1 0.5 0.2
v 0.1 0.5 0.2
v -0.4 0.6 0.1
v -0.3 0.6 0.1
v 0.3 0.6 0.1
v 0.4 0.6 0.1
v -0.4 0.6 0
v -0.3 0.6 0
v 0.3 0.6 0
v 0.4 0.6 0
v -0.1 0.8 -0.1
v 0.1 0.8 -0.1
v -0.1 0.8 -0.2
v 0 0.8 -0.2
v 0.1 0.8 -0.2
v 0 0.8 -0.3
v 0.1 0.8 -0.3
v -0.1 0.9 -0.2
v 0 0.9 -0.2
v -0.1 0.9 -0.3
v 0 0.9 -0.3
v -0.5 0.3 -0.2
v -0.4 0.3 -0.2
v 0.4 0.3 -0.2
v 0.5 0.3 -0.2
v -0.5 0.3 -0.4
v -0.4 0.3 -0.4
v 0.4 0.3 -0.4
v 0.5 0.3 -0.4
v -0.3 0.5 0.2
v -0.2 0.5 0.2
v 0.2 0.5 0.2
v 0.3 0.5 0.2
v -0.4 0.5 0.1
v -0.3 0.5 0.1
v -0.2 0.5 0.1
v 0.2 0.5 0.1
v 0.3 0.5 0.1
v 0.4 0.5 0.1
v -0.5 0.5 0
v -0.4 0.5 0
v -0.3 0.5 0
v 0.3 0.5 0
v 0.4 0.5 0
v 0.5 0.5 0
v -0.5 0.5 -0.2
v -0.4 0.5 -0.2
v 0.4 0.5 -0.2
v 0.5 0.5 -0.2
v -0.4 0.5 -0.3
v -0.3 0.5 -0.3
v 0.3 0.5 -0.3
v 0.4 0.5 -0.3
v -0.4 0.5 -0.4
v -0.3 0.5 -0.4
v -0.2 0.5 -0.4
v 0.2 0.5 -0.4
v 0.3 0.5 -0.4
v 0.4 0.5 -0.4
v -0.3 0.5 -0.5
v -0.2 0.5 -0.5
v 0.2 0.5 -0.5
v 0.3 0.5 -0.5
v -0.1 0.6 0.5
v 0.1 0.6 0.5
v -0.2 0.6 0.2
v -0.1 0.6 0.2
v 0.1 0.6 0.2
v 0.2 0.6 0.2
v -0.2 0.6 0.1
v -0.1 0.6 0.1
v 0.1 0.6 0.1
v 0.2 0.6 0.1
v -0.4 0.6 -0.1
v -0.3 0.6 -0.1
v 0.3 0.6 -0.1
v 0.4 0.6 -0.1
v -0.4 0.6 -0.3
v -0.3 0.6 -0.3
v -0.2 0.6 -0.3
v 0.2 0.6 -0.3
v 0.3 0.6 -0.3
v 0.4 0.6 -0.3
v -0.3 0.6 -0.4
v -0.2 0.6 -0.4
v 0.2 0.6 -0.4
v 0.3 0.6 -0.4
v -0.2 0.6 -0.5
v 0.2 0.6 -0.5
v -0.1 0.7 0.2
v 0.1 0.7 0.2
v -0.1 0.7 0.1
v 0.1 0.7 0.1
v -0.4 0.7 0
v -0.3 0.7 0
v -0.1 0.7 0
v 0.1 0.7 0
v 0.2 0.7 0
v 0.3 0.7 0
v 0.4 0.7 0
v -0.4 0.7 -0.1
v -0.3 0.7 -0.1
v -0.2 0.7 -0.1
v -0.1 0.7 -0.1
v 0.1 0.7 -0.1
v 0.2 0.7 -0.1
v 0.3 0.7 -0.1
v 0.4 0.7 -0.1
v -0.2 0.7 -0.2
v -0.1 0.7 -0.2
v 0 0.7 -0.2
v 0.1 0.7 -0.2
v 0.2 0.7 -0.2
v -0.3 0.7 -0.3
v -0.2 0.7 -0.3
v -0.1 0.7 -0.3
v 0 0.7 -0.3
v 0.2 0.7 -0.3
v 0.3 0.7 -0.3
v -0.2 0.7 -0.4
v 0.2 0.7 -0.4
v -0.4 0.8 0.1
v -0.1 0.8 0.1
v 0.1 0.8 0.1
v 0.4 0.8 0.1
v -0.4 0.8 0
v -0.3 0.8 0
v -0.2 0.8 0
v -0.1 0.8 0
v 0.1 0.8 0
v 0.2 0.8 0
v 0.3 0.8 0
v 0.4 0.8 0
v -0.3 0.8 -0.1
v -0.2 0.8 -0.1
v -0.1 0.8 -0.1
v 0.2 0.8 -0.1
v 0.3 0.8 -0.1
v -0.1 0.9 0
v 0.1 0.9 0
v -0.2 0.9 -0.1
v -0.1 0.9 -0.1
v 0.1 0.9 -0.1
v 0.2 0.9 -0.1
v -0.2 0.9 -0.2
v -0.1 0.9 -0.2
v 0.1 0.9 -0.2
v 0.2 0.9 -0.2
v -0.1 1 -0.1
v 0.1 1 -0.1
v -0.1 1 -0.3
v 0.1 1 -0.3

# faces
f 3/3/1 2/3/1 1/3/1
f 5/3/1 3/3/1 1/3/1
f 5/3/1 4/3/1 3/3/1
f 6/3/1 4/3/1 5/3/1
f 7/3/1 5/3/1 1/3/1
f 8/3/1 5/3/1 7/3/1
f 13/4/1 10/4/1 9/4/1
f 14/4/1 10/4/1 13/4/1
f 15/4/1 12/4/1 11/4/1
f 16/4/1 12/4/1 15/4/1
f 17/4/1 12/4/1 16/4/1
f 19/4/1 15/4/1 14/4/1
f 19/4/1 16/4/1 15/4/1
f 20/4/1 16/4/1 19/4/1
f 21/4/1 16/4/1 20/4/1
f 22/5/1 19/5/1 18/5/1
f 23/4/1 20/4/1 19/4/1
f 23/5/1 19/5/1 22/5/1
f 24/4/1 20/4/1 23/4/1
f 25/4/1 23/4/1 22/4/1
f 26/4/1 23/4/1 25/4/1
f 30/1/1 28/1/1 27/1/1
f 31/1/1 28/1/1 30/1/1
f 33/3/1 30/3/1 29/3/1
f 34/3/1 30/3/1 33/3/1
f 35/4/1 32/4/1 31/4/1
f 36/4/1 32/4/1 35/4/1
f 40/4/1 37/4/1 36/4/1
f 41/4/1 37/4/1 40/4/1
f 43/4/1 39/4/1 38/4/1
f 44/4/1 39/4/1 43/4/1
f 47/4/1 42/4/1 41/4/1
f 48/4/1 42/4/1 47/4/1
f 49/4/1 45/4/1 44/4/1
f 50/4/1 45/4/1 49/4/1
f 52/4/1 47/4/1 46/4/1
f 53/4/1 47/4/1 52/4/1
f 55/4/1 52/4/1 51/4/1
f 56/4/1 52/4/1 55/4/1
f 57/4/1 55/4/1 54/4/1
f 58/4/1 55/4/1 57/4/1
f 61/1/1 60/1/1 59/1/1
f 62/1/1 60/1/1 61/1/1
f 67/4/1 64/4/1 63/4/1
f 68/4/1 64/4/1 67/4/1
f 70/3/1 66/3/1 65/3/1
f 71/3/1 66/3/1 70/3/1
f 72/4/1 69/4/1 68/4/1
f 73/4/1 69/4/1 72/4/1
f 78/1/1 75/1/1 74/1/1
f 79/1/1 75/1/1 78/1/1
f 81/4/1 77/4/1 76/4/1
f 82/4/1 77/4/1 81/4/1
f 85/4/1 81/4/1 80/4/1
f 86/4/1 81/4/1 85/4/1
f 87/3/1 84/3/1 83/3/1
f 88/3/1 84/3/1 87/3/1
f 89/3/1 84/3/1 88/3/1
f 92/1/1 91/1/1 90/1/1
f 93/1/1 91/1/1 92/1/1
f 95/1/1 94/1/1 93/1/1
f 96/1/1 94/1/1 95/1/1
f 99/3/1 98/3/1 97/3/1
f 100/3/1 98/3/1 99/3/1
f 103/3/1 102/3/1 101/3/1
f 103/3/1 101/3/1 100/3/1
f 104/3/1 102/3/1 103/3/1
f 107/3/1 106/3/1 105/3/1
f 108/3/1 106/3/1 107/3/1
f 111/1/1 110/1/1 109/1/1
f 112/1/1 110/1/1 111/1/1
f 113/1/1 110/1/1 112/1/1
f 118/4/1 115/4/1 114/4/1
f 119/4/1 115/4/1 118/4/1
f 120/3/1 117/3/1 116/3/1
f 121/3/1 117/3/1 120/3/1
f 124/4/1 123/4/1 122/4/1
f 125/4/1 123/4/1 124/4/1
f 128/3/1 127/3/1 126/3/1
f 129/3/1 127/3/1 128/3/1
f 131/3/1 130/3/1 129/3/1
f 132/3/1 130/3/1 131/3/1
f 133/3/2 134/3/2 135/3/2
f 135/3/2 134/3/2 136/3/2
f 136/3/2 137/3/2 138/3/2
f 138/3/2 137/3/2 139/3/2
f 140/1/2 141/1/2 142/1/2
f 142/1/2 141/1/2 143/1/2
f 143/1/2 141/1/2 144/1/2
f 145/4/2 146/4/2 149/4/2
f 149/4/2 146/4/2 150/4/2
f 147/3/2 148/3/2 151/3/2
f 151/3/2 148/3/2 152/3/2
f 153/1/2 154/1/2 155/1/2
f 155/1/2 154/1/2 156/1/2
f 156/1/2 157/1/2 158/1/2
f 158/1/2 157/1/2 159/1/2
f 160/3/2 161/3/2 162/3/2
f 162/3/2 161/3/2 165/3/2
f 165/3/2 161/3/2 166/3/2
f 163/3/2 164/3/2 167/3/2
f 166/3/2 167/3/2 168/3/2
f 167/3/2 164/3/2 169/3/2
f 168/3/2 167/3/2 169/3/2
f 170/1/2 171/1/2 172/1/2
f 172/1/2 171/1/2 173/1/2
f 174/4/2 175/4/2 178/4/2
f 178/4/2 175/4/2 179/4/2
f 176/3/2 177/3/2 181/3/2
f 181/3/2 177/3/2 182/3/2
f 179/4/2 180/4/2 183/4/2
f 183/4/2 180/4/2 184/4/2
f 185/1/2 186/1/2 189/1/2
f 189/1/2 186/1/2 190/1/2
f 187/4/2 188/4/2 192/4/2
f 192/4/2 188/4/2 193/4/2
f 191/4/2 192/4/2 196/4/2
f 196/4/2 192/4/2 197/4/2
f 194/3/2 195/3/2 198/3/2
f 198/3/2 195/3/2 199/3/2
f 199/3/2 195/3/2 200/3/2
f 201/1/2 202/1/2 204/1/2
f 204/1/2 202/1/2 205/1/2
f 203/3/2 204/3/2 207/3/2
f 207/3/2 204/3/2 208/3/2
f 205/4/2 206/4/2 209/4/2
f 209/4/2 206/4/2 210/4/2
f 210/4/2 211/4/2 214/4/2
f 214/4/2 211/4/2 215/4/2
f 212/4/2 213/4/2 217/4/2
f 217/4/2 213/4/2 218/4/2
f 215/4/2 216/4/2 221/4/2
f 221/4/2 216/4/2 222/4/2
f 218/4/2 219/4/2 223/4/2
f 223/4/2 219/4/2 224/4/2
f 220/4/2 221/4/2 226/4/2
f 226/4/2 221/4/2 227/4/2
f 225/4/2 226/4/2 229/4/2
f 229/4/2 226/4/2 230/4/2
f 228/4/2 229/4/2 231/4/2
f 231/4/2 229/4/2 232/4/2
f 233/4/2 234/4/2 237/4/2
f 237/4/2 234/4/2 238/4/2
f 235/4/2 236/4/2 239/4/2
f 239/4/2 236/4/2 240/4/2
f 240/4/2 236/4/2 241/4/2
f 238/4/2 239/4/2 243/4/2
f 239/4/2 240/4/2 243/4/2
f 243/4/2 240/4/2 244/4/2
f 244/4/2 240/4/2 245/4/2
f 242/5/2 243/5/2 246/5/2
f 243/4/2 244/4/2 247/4/2
f 246/5/2 243/5/2 247/5/2
f 247/4/2 244/4/2 248/4/2
f 246/4/2 247/4/2 249/4/2
f 249/4/2 247/4/2 250/4/2
f 251/3/2 252/3/2 253/3/2
f 251/3/2 253/3/2 255/3/2
f 253/3/2 254/3/2 255/3/2
f 255/3/2 254/3/2 256/3/2
f 251/3/2 255/3/2 257/3/2
f 257/3/2 255/3/2 258/3/2
f 261/1/3 260/1/3 259/1/3
f 262/1/3 260/1/3 261/1/3
f 266/4/3 264/4/3 263/4/3
f 267/4/3 264/4/3 266/4/3
f 269/3/3 266/3/3 265/3/3
f 269/4/3 267/4/3 266/4/3
f 270/4/3 267/4/3 269/4/3
f 271/1/3 268/1/3 267/1/3
f 271/4/3 267/4/3 270/4/3
f 272/1/3 268/1/3 271/1/3
f 274/3/3 270/3/3 269/3/3
f 274/3/3 269/3/3 265/3/3
f 275/4/3 271/4/3 270/4/3
f 275/3/3 270/3/3 274/3/3
f 276/4/3 271/4/3 275/4/3
f 277/1/3 273/1/3 272/1/3
f 278/1/3 273/1/3 277/1/3
f 279/3/3 274/3/3 265/3/3
f 280/4/3 276/4/3 275/4/3
f 280/3/3 274/3/3 279/3/3
f 280/4/3 275/4/3 274/4/3
f 281/1/3 277/1/3 276/1/3
f 281/4/3 276/4/3 280/4/3
f 282/1/3 277/1/3 281/1/3
f 283/4/3 281/4/3 280/4/3
f 284/4/3 281/4/3 283/4/3
f 291/4/3 286/4/3 285/4/3
f 292/4/3 286/4/3 291/4/3
f 293/4/3 286/4/3 292/4/3
f 294/5/3 288/5/3 287/5/3
f 296/3/3 291/3/3 290/3/3
f 297/4/3 292/4/3 291/4/3
f 297/3/3 291/3/3 296/3/3
f 298/4/3 292/4/3 297/4/3
f 299/4/3 294/4/3 293/4/3
f 300/5/3 288/5/3 294/5/3
f 300/4/3 294/4/3 299/4/3
f 301/1/3 296/1/3 295/1/3
f 302/3/3 297/3/3 296/3/3
f 302/1/3 296/1/3 301/1/3
f 303/5/3 288/5/3 300/5/3
f 304/4/3 289/4/3 288/4/3
f 304/5/3 288/5/3 303/5/3
f 305/4/3 289/4/3 304/4/3
f 307/3/3 297/3/3 302/3/3
f 311/1/3 307/1/3 306/1/3
f 312/3/3 297/3/3 307/3/3
f 312/1/3 307/1/3 311/1/3
f 313/3/3 297/3/3 312/3/3
f 316/5/3 309/5/3 308/5/3
f 317/3/3 313/3/3 312/3/3
f 318/4/3 314/4/3 313/4/3
f 318/3/3 313/3/3 317/3/3
f 319/4/3 314/4/3 318/4/3
f 320/4/3 316/4/3 315/4/3
f 321/5/3 309/5/3 316/5/3
f 321/4/3 316/4/3 320/4/3
f 322/4/3 319/4/3 318/4/3
f 322/4/3 320/4/3 319/4/3
f 323/4/3 320/4/3 322/4/3
f 324/5/3 309/5/3 321/5/3
f 325/4/3 310/4/3 309/4/3
f 325/5/3 309/5/3 324/5/3
f 326/4/3 310/4/3 325/4/3
f 329/3/3 328/3/3 327/3/3
f 330/3/3 328/3/3 329/3/3
f 331/3/3 328/3/3 330/3/3
f 334/4/3 330/4/3 329/4/3
f 335/4/3 330/4/3 334/4/3
f 336/4/3 332/4/3 331/4/3
f 337/4/3 332/4/3 336/4/3
f 338/1/3 334/1/3 333/1/3
f 339/1/3 334/1/3 338/1/3
f 343/3/3 341/3/3 340/3/3
f 343/3/3 342/3/3 341/3/3
f 344/3/3 342/3/3 343/3/3
f 345/3/3 342/3/3 344/3/3
f 348/1/3 347/1/3 346/1/3
f 349/1/3 347/1/3 348/1/3
f 353/4/3 350/4/3 349/4/3
f 354/4/3 350/4/3 353/4/3
f 355/4/3 352/4/3 351/4/3
f 356/4/3 352/4/3 355/4/3
f 357/3/3 354/3/3 353/3/3
f 357/3/3 355/3/3 354/3/3
f 358/3/3 355/3/3 357/3/3
f 361/3/3 360/3/3 359/3/3
f 362/3/3 360/3/3 361/3/3
f 365/3/3 363/3/3 362/3/3
f 366/3/3 363/3/3 365/3/3
f 367/3/3 365/3/3 364/3/3
f 368/3/3 365/3/3 367/3/3
f 369/3/3 365/3/3 368/3/3
f 370/4/4 371/4/4 372/4/4
f 372/4/4 371/4/4 373/4/4
f 374/4/4 375/4/4 376/4/4
f 376/4/4 375/4/4 377/4/4
f 378/4/4 379/4/4 380/4/4
f 380/4/4 379/4/4 381/4/4
f 382/4/4 383/4/4 384/4/4
f 384/4/4 383/4/4 385/4/4
f 385/4/4 386/4/4 387/4/4
f 387/4/4 386/4/4 388/4/4
f 389/3/4 390/3/4 391/3/4
f 391/3/4 390/3/4 392/3/4
f 393/4/4 394/4/4 396/4/4
f 396/4/4 394/4/4 397/4/4
f 395/4/4 396/4/4 398/4/4
f 398/4/4 396/4/4 399/4/4
f 400/3/4 401/3/4 404/3/4
f 404/3/4 401/3/4 405/3/4
f 402/4/4 403/4/4 407/4/4
f 407/4/4 403/4/4 408/4/4
f 406/1/4 407/1/4 411/1/4
f 411/1/4 407/1/4 412/1/4
f 409/3/4 410/3/4 413/3/4
f 413/3/4 410/3/4 414/3/4
f 414/3/4 410/3/4 415/3/4
f 414/3/4 415/3/4 416/3/4
f 416/3/4 415/3/4 417/3/4
f 420/3/4 421/3/4 423/3/4
f 421/3/4 422/3/4 423/3/4
f 423/3/4 422/3/4 424/3/4
f 418/1/4 419/1/4 425/1/4
f 425/1/4 419/1/4 426/1/4
f 426/4/4 427/4/4 428/4/4
f 428/4/4 427/4/4 429/4/4
f 430/3/4 431/3/4 432/3/4
f 432/3/4 431/3/4 433/3/4
f 434/3/4 435/3/4 436/3/4
f 436/3/4 435/3/4 437/3/4
f 437/4/4 438/4/4 442/4/4
f 442/4/4 438/4/4 443/4/4
f 439/4/4 440/4/4 444/4/4
f 444/4/4 440/4/4 445/4/4
f 441/4/4 442/4/4 447/4/4
f 447/4/4 442/4/4 448/4/4
f 445/4/4 446/4/4 449/4/4
f 449/4/4 446/4/4 450/4/4
f 451/3/4 452/3/4 454/3/4
f 453/3/4 454/3/4 455/3/4
f 454/3/4 452/3/4 456/3/4
f 455/3/4 454/3/4 456/3/4
f 457/4/4 458/4/4 461/4/4
f 461/4/4 458/4/4 462/4/4
f 459/4/4 460/4/4 465/4/4
f 465/4/4 460/4/4 466/4/4
f 462/4/4 463/4/4 468/4/4
f 468/4/4 463/4/4 469/4/4
f 464/4/4 465/4/4 470/4/4
f 470/4/4 465/4/4 471/4/4
f 467/3/4 468/3/4 472/3/4
f 472/3/4 468/3/4 473/3/4
f 474/3/4 475/3/4 476/3/4
f 476/3/4 475/3/4 477/3/4
f 477/4/4 478/4/4 480/4/4
f 480/4/4 478/4/4 481/4/4
f 479/4/4 480/4/4 484/4/4
f 484/4/4 480/4/4 485/4/4
f 481/4/4 482/4/4 486/4/4
f 486/4/4 482/4/4 487/4/4
f 483/4/4 484/4/4 489/4/4
f 489/4/4 484/4/4 490/4/4
f 487/4/4 488/4/4 493/4/4
f 493/4/4 488/4/4 494/4/4
f 490/4/4 491/4/4 495/4/4
f 495/4/4 491/4/4 496/4/4
f 492/4/4 493/4/4 497/4/4
f 497/4/4 493/4/4 498/4/4
f 496/4/4 497/4/4 500/4/4
f 500/4/4 497/4/4 501/4/4
f 499/3/4 500/3/4 502/3/4
f 502/3/4 500/3/4 503/3/4
f 504/4/4 505/4/4 507/4/4
f 507/4/4 505/4/4 508/4/4
f 506/4/4 507/4/4 510/4/4
f 508/4/4 509/4/4 510/4/4
f 507/4/4 508/4/4 510/4/4
f 510/4/4 509/4/4 511/4/4
f 511/4/4 509/4/4 512/4/4
f 512/4/4 509/4/4 513/4/4
f 511/4/4 512/4/4 514/4/4
f 514/4/4 512/4/4 515/4/4
f 521/1/5 517/1/5 516/1/5
f 522/1/5 519/1/5 518/1/5
f 524/1/5 521/1/5 520/1/5
f 525/1/5 517/1/5 521/1/5
f 525/1/5 521/1/5 524/1/5
f 526/1/5 523/1/5 522/1/5
f 526/1/5 522/1/5 518/1/5
f 527/1/5 523/1/5 526/1/5
f 536/3/5 529/3/5 528/3/5
f 537/3/5 529/3/5 536/3/5
f 538/3/5 531/3/5 530/3/5
f 539/3/5 531/3/5 538/3/5
f 540/3/5 533/3/5 532/3/5
f 541/3/5 533/3/5 540/3/5
f 544/3/5 535/3/5 534/3/5
f 544/4/5 536/4/5 535/4/5
f 545/4/5 536/4/5 544/4/5
f 546/1/5 539/1/5 538/1/5
f 547/1/5 539/1/5 546/1/5
f 548/4/5 542/4/5 541/4/5
f 549/3/5 543/3/5 542/3/5
f 549/4/5 542/4/5 548/4/5
f 550/3/5 544/3/5 534/3/5
f 551/3/5 544/3/5 550/3/5
f 552/4/5 548/4/5 547/4/5
f 552/4/5 547/4/5 546/4/5
f 552/4/5 546/4/5 545/4/5
f 553/4/5 548/4/5 552/4/5
f 554/4/5 548/4/5 553/4/5
f 555/4/5 548/4/5 554/4/5
f 556/3/5 543/3/5 549/3/5
f 557/3/5 543/3/5 556/3/5
f 558/4/5 554/4/5 553/4/5
f 559/4/5 554/4/5 558/4/5
f 564/3/5 561/3/5 560/3/5
f 565/3/5 561/3/5 564/3/5
f 568/4/5 563/4/5 562/4/5
f 569/4/5 563/4/5 568/4/5
f 570/4/5 567/4/5 566/4/5
f 571/4/5 567/4/5 570/4/5
f 577/4/5 573/4/5 572/4/5
f 578/4/5 573/4/5 577/4/5
f 581/4/5 575/4/5 574/4/5
f 582/4/5 575/4/5 581/4/5
f 584/3/5 577/3/5 576/3/5
f 585/3/5 577/3/5 584/3/5
f 586/4/5 579/4/5 578/4/5
f 587/4/5 579/4/5 586/4/5
f 588/4/5 581/4/5 580/4/5
f 589/4/5 581/4/5 588/4/5
f 590/3/5 583/3/5 582/3/5
f 591/3/5 583/3/5 590/3/5
f 592/4/5 588/4/5 587/4/5
f 593/4/5 588/4/5 592/4/5
f 598/4/5 595/4/5 594/4/5
f 599/4/5 595/4/5 598/4/5
f 600/4/5 597/4/5 596/4/5
f 601/4/5 597/4/5 600/4/5
f 606/4/5 603/4/5 602/4/5
f 607/4/5 603/4/5 606/4/5
f 610/4/5 605/4/5 604/4/5
f 611/4/5 605/4/5 610/4/5
f 612/4/5 608/4/5 607/4/5
f 613/4/5 608/4/5 612/4/5
f 614/4/5 610/4/5 609/4/5
f 615/4/5 610/4/5 614/4/5
f 618/1/5 617/1/5 616/1/5
f 619/1/5 617/1/5 618/1/5
f 624/5/5 621/5/5 620/5/5
f 625/5/5 621/5/5 624/5/5
f 626/5/5 623/5/5 622/5/5
f 627/5/5 623/5/5 626/5/5
f 630/3/5 629/3/5 628/3/5
f 631/3/5 629/3/5 630/3/5
f 632/3/5 629/3/5 631/3/5
f 633/3/5 632/3/5 631/3/5
f 634/3/5 632/3/5 633/3/5
f 637/3/5 636/3/5 635/3/5
f 638/3/5 636/3/5 637/3/5
f 639/3/6 640/3/6 643/3/6
f 643/3/6 640/3/6 644/3/6
f 641/3/6 642/3/6 645/3/6
f 645/3/6 642/3/6 646/3/6
f 647/4/6 648/4/6 652/4/6
f 652/4/6 648/4/6 653/4/6
f 649/4/6 650/4/6 654/4/6
f 654/4/6 650/4/6 655/4/6
f 651/4/6 652/4/6 658/4/6
f 658/4/6 652/4/6 659/4/6
f 655/4/6 656/4/6 660/4/6
f 660/4/6 656/4/6 661/4/6
f 657/3/6 658/3/6 663/3/6
f 663/3/6 658/3/6 664/3/6
f 661/3/6 662/3/6 665/3/6
f 665/3/6 662/3/6 666/3/6
f 667/4/6 668/4/6 671/4/6
f 671/4/6 668/4/6 672/4/6
f 669/4/6 670/4/6 675/4/6
f 675/4/6 670/4/6 676/4/6
f 672/4/6 673/4/6 677/4/6
f 677/4/6 673/4/6 678/4/6
f 674/4/6 675/4/6 679/4/6
f 679/4/6 675/4/6 680/4/6
f 681/1/6 682/1/6 684/1/6
f 684/1/6 682/1/6 685/1/6
f 683/1/6 684/1/6 687/1/6
f 687/1/6 684/1/6 688/1/6
f 685/1/6 686/1/6 689/1/6
f 689/1/6 686/1/6 690/1/6
f 691/4/6 692/4/6 695/4/6
f 695/4/6 692/4/6 696/4/6
f 693/4/6 694/4/6 699/4/6
f 699/4/6 694/4/6 700/4/6
f 696/4/6 697/4/6 701/4/6
f 701/4/6 697/4/6 702/4/6
f 698/4/6 699/4/6 703/4/6
f 703/4/6 699/4/6 704/4/6
f 702/4/6 703/4/6 705/4/6
f 705/4/6 703/4/6 706/4/6
f 707/1/6 708/1/6 709/1/6
f 709/1/6 708/1/6 710/1/6
f 709/4/6 710/4/6 713/4/6
f 713/4/6 710/4/6 714/4/6
f 711/4/6 712/4/6 718/4/6
f 718/4/6 712/4/6 719/4/6
f 714/3/6 715/3/6 722/3/6
f 722/3/6 715/3/6 723/3/6
f 716/4/6 717/4/6 724/4/6
f 724/4/6 717/4/6 725/4/6
f 719/4/6 720/4/6 726/4/6
f 721/3/6 722/3/6 727/3/6
f 727/3/6 722/3/6 728/3/6
f 728/3/6 722/3/6 729/3/6
f 723/4/6 724/4/6 730/4/6
f 719/4/6 726/4/6 731/4/6
f 726/4/6 727/4/6 731/4/6
f 731/4/6 727/4/6 732/4/6
f 727/3/6 728/3/6 733/3/6
f 732/4/6 727/4/6 733/4/6
f 728/4/6 729/4/6 734/4/6
f 733/3/6 728/3/6 734/3/6
f 729/4/6 730/4/6 734/4/6
f 730/4/6 724/4/6 735/4/6
f 734/4/6 730/4/6 735/4/6
f 735/4/6 724/4/6 736/4/6
f 732/4/6 733/4/6 737/4/6
f 733/4/6 734/4/6 737/4/6
f 734/4/6 735/4/6 737/4/6
f 737/4/6 735/4/6 738/4/6
f 739/4/6 740/4/6 743/4/6
f 743/4/6 740/4/6 744/4/6
f 744/4/6 740/4/6 745/4/6
f 745/4/6 740/4/6 746/4/6
f 741/4/6 742/4/6 747/4/6
f 747/4/6 742/4/6 748/4/6
f 748/4/6 742/4/6 749/4/6
f 749/4/6 742/4/6 750/4/6
f 744/4/6 745/4/6 751/4/6
f 745/3/6 746/3/6 752/3/6
f 751/4/6 745/4/6 752/4/6
f 752/3/6 746/3/6 753/3/6
f 748/4/6 749/4/6 754/4/6
f 754/4/6 749/4/6 755/4/6
f 756/3/6 757/3/6 759/3/6
f 759/3/6 757/3/6 760/3/6
f 758/3/6 759/3/6 762/3/6
f 762/3/6 759/3/6 763/3/6
f 760/3/6 761/3/6 764/3/6
f 764/3/6 761/3/6 765/3/6
f 766/3/6 767/3/6 768/3/6
f 768/3/6 767/3/6 769/3/6
