# MagicaVoxel @ Ephtracy

# group
o 

# material
mtllib Tile_B.mtl
usemtl palette

# normals
vn -1 0 0
vn 1 0 0
vn 0 0 1
vn 0 0 -1
vn 0 -1 0
vn 0 1 0

# texcoords
vt 0.958984 0.5
vt 0.982422 0.5
vt 0.986328 0.5

# verts
v -0.5 0 0.5
v -0.5 0 0
v -0.5 0 -0.2
v -0.5 0 -0.3
v -0.5 0 -0.5
v -0.5 0.1 0
v -0.5 0.1 -0.2
v -0.5 0.1 -0.3
v -0.5 0.1 -0.5
v -0.5 0.2 0.5
v -0.5 0.2 -0.1
v -0.5 0.3 0.5
v -0.5 0.3 -0.1
v -0.5 0.3 -0.5
v -0.5 0.4 0.5
v -0.5 0.4 0.3
v -0.5 0.4 -0.1
v -0.5 0.4 -0.5
v -0.5 0.5 0.3
v -0.5 0.5 -0.1
v -0.5 0.6 0.5
v -0.5 0.6 0
v -0.5 0.6 -0.5
v -0.5 0.7 0.5
v -0.5 0.7 0
v -0.5 0.7 -0.3
v -0.5 0.7 -0.5
v -0.5 0.8 0.5
v -0.5 0.8 0.3
v -0.5 0.8 -0.1
v -0.5 0.8 -0.3
v -0.5 0.8 -0.4
v -0.5 0.8 -0.5
v -0.5 0.9 0.5
v -0.5 0.9 0.4
v -0.5 0.9 0.3
v -0.5 0.9 -0.1
v -0.5 0.9 -0.2
v -0.5 0.9 -0.3
v -0.5 0.9 -0.4
v -0.5 0.9 -0.5
v -0.5 1 0.5
v -0.5 1 0.4
v -0.5 1 -0.1
v -0.5 1 -0.2
v -0.5 1 -0.3
v -0.5 1 -0.4
v -0.5 1 -0.5
v 0.5 0 0.5
v 0.5 0 0.2
v 0.5 0 0.1
v 0.5 0 0
v 0.5 0 -0.2
v 0.5 0 -0.5
v 0.5 0.1 0.5
v 0.5 0.1 0.4
v 0.5 0.1 0.2
v 0.5 0.1 0.1
v 0.5 0.1 0
v 0.5 0.1 -0.2
v 0.5 0.1 -0.5
v 0.5 0.2 0.5
v 0.5 0.2 0.4
v 0.5 0.2 -0.5
v 0.5 0.3 0.5
v 0.5 0.3 0.4
v 0.5 0.3 0.3
v 0.5 0.3 -0.1
v 0.5 0.3 -0.4
v 0.5 0.3 -0.5
v 0.5 0.4 0.5
v 0.5 0.4 0.4
v 0.5 0.4 0.3
v 0.5 0.4 -0.1
v 0.5 0.4 -0.4
v 0.5 0.5 0.5
v 0.5 0.5 0.4
v 0.5 0.5 -0.4
v 0.5 0.5 -0.5
v 0.5 0.6 0.4
v 0.5 0.6 -0.1
v 0.5 0.6 -0.5
v 0.5 0.7 0.5
v 0.5 0.7 -0.1
v 0.5 0.8 0.5
v 0.5 0.8 -0.1
v 0.5 0.8 -0.4
v 0.5 0.8 -0.5
v 0.5 0.9 0.4
v 0.5 0.9 0.3
v 0.5 0.9 0
v 0.5 0.9 -0.1
v 0.5 0.9 -0.3
v 0.5 0.9 -0.4
v 0.5 1 0.5
v 0.5 1 0.4
v 0.5 1 0.3
v 0.5 1 0
v 0.5 1 -0.1
v 0.5 1 -0.3
v 0.5 1 -0.4
v 0.5 1 -0.5
v -0.5 0 0.5
v -0.5 0.2 0.5
v -0.5 0.3 0.5
v -0.5 0.4 0.5
v -0.5 0.6 0.5
v -0.5 0.7 0.5
v -0.5 0.8 0.5
v -0.5 0.9 0.5
v -0.5 1 0.5
v -0.4 0.7 0.5
v -0.4 0.8 0.5
v -0.2 0 0.5
v -0.2 0.1 0.5
v -0.2 0.2 0.5
v -0.2 0.3 0.5
v -0.2 0.5 0.5
v -0.2 0.6 0.5
v -0.2 0.7 0.5
v -0.2 0.8 0.5
v -0.2 0.9 0.5
v -0.2 1 0.5
v -0.1 0.8 0.5
v -0.1 0.9 0.5
v 0 0.1 0.5
v 0 0.2 0.5
v 0.1 0.1 0.5
v 0.1 0.2 0.5
v 0.1 0.3 0.5
v 0.1 0.4 0.5
v 0.1 0.5 0.5
v 0.1 0.6 0.5
v 0.1 0.7 0.5
v 0.2 0 0.5
v 0.2 0.1 0.5
v 0.3 0.4 0.5
v 0.3 0.5 0.5
v 0.4 0.8 0.5
v 0.4 0.9 0.5
v 0.5 0 0.5
v 0.5 0.1 0.5
v 0.5 0.2 0.5
v 0.5 0.3 0.5
v 0.5 0.4 0.5
v 0.5 0.5 0.5
v 0.5 0.7 0.5
v 0.5 0.8 0.5
v 0.5 1 0.5
v -0.5 0 -0.5
v -0.5 0.1 -0.5
v -0.5 0.3 -0.5
v -0.5 0.4 -0.5
v -0.5 0.6 -0.5
v -0.5 0.7 -0.5
v -0.5 0.8 -0.5
v -0.5 0.9 -0.5
v -0.5 1 -0.5
v -0.4 0 -0.5
v -0.4 0.1 -0.5
v -0.4 0.9 -0.5
v -0.4 1 -0.5
v -0.2 0.7 -0.5
v -0.2 0.8 -0.5
v -0.2 0.9 -0.5
v -0.1 0.3 -0.5
v -0.1 0.4 -0.5
v -0.1 0.6 -0.5
v -0.1 0.7 -0.5
v 0 0.1 -0.5
v 0 0.2 -0.5
v 0.1 0 -0.5
v 0.1 0.1 -0.5
v 0.1 0.4 -0.5
v 0.1 0.6 -0.5
v 0.2 0.4 -0.5
v 0.2 0.5 -0.5
v 0.4 0 -0.5
v 0.4 0.1 -0.5
v 0.4 0.6 -0.5
v 0.4 0.7 -0.5
v 0.4 0.9 -0.5
v 0.4 1 -0.5
v 0.5 0 -0.5
v 0.5 0.1 -0.5
v 0.5 0.2 -0.5
v 0.5 0.3 -0.5
v 0.5 0.5 -0.5
v 0.5 0.6 -0.5
v 0.5 0.8 -0.5
v 0.5 1 -0.5
v -0.5 0 0.5
v -0.2 0 0.5
v 0.2 0 0.5
v 0.5 0 0.5
v -0.2 0 0.4
v 0.2 0 0.4
v 0.4 0 0.4
v -0.4 0 0.3
v 0 0 0.3
v 0.4 0 0.3
v -0.4 0 0.2
v 0 0 0.2
v 0.3 0 0.2
v 0.4 0 0.2
v 0.5 0 0.2
v -0.4 0 0.1
v -0.1 0 0.1
v 0.3 0 0.1
v 0.5 0 0.1
v -0.5 0 0
v -0.4 0 0
v -0.1 0 0
v 0.5 0 0
v -0.3 0 -0.1
v 0.2 0 -0.1
v -0.5 0 -0.2
v -0.3 0 -0.2
v 0.2 0 -0.2
v 0.5 0 -0.2
v -0.5 0 -0.3
v -0.4 0 -0.3
v -0.4 0 -0.4
v 0.1 0 -0.4
v 0.4 0 -0.4
v -0.5 0 -0.5
v -0.4 0 -0.5
v 0.1 0 -0.5
v 0.4 0 -0.5
v 0.5 0 -0.5
v -0.5 1 0.5
v -0.2 1 0.5
v 0.5 1 0.5
v -0.5 1 0.4
v -0.4 1 0.4
v -0.2 1 0.4
v -0.1 1 0.4
v 0.5 1 0.4
v -0.4 1 0.3
v -0.1 1 0.3
v 0.1 1 0.3
v 0.5 1 0.3
v -0.4 1 0.2
v -0.1 1 0.2
v 0.1 1 0.2
v 0.4 1 0.2
v -0.3 1 0.1
v -0.1 1 0.1
v 0.2 1 0.1
v 0.3 1 0.1
v 0.4 1 0.1
v -0.4 1 0
v -0.3 1 0
v 0.2 1 0
v 0.3 1 0
v 0.5 1 0
v -0.5 1 -0.1
v -0.4 1 -0.1
v 0.2 1 -0.1
v 0.5 1 -0.1
v -0.5 1 -0.2
v -0.4 1 -0.2
v 0.1 1 -0.2
v 0.2 1 -0.2
v -0.5 1 -0.3
v -0.4 1 -0.3
v 0.1 1 -0.3
v 0.5 1 -0.3
v -0.5 1 -0.4
v -0.4 1 -0.4
v 0.1 1 -0.4
v 0.4 1 -0.4
v 0.5 1 -0.4
v -0.5 1 -0.5
v -0.4 1 -0.5
v 0.4 1 -0.5
v 0.5 1 -0.5

# faces
f 6/2/1 2/2/1 1/2/1
f 6/3/1 3/3/1 2/3/1
f 7/2/1 4/2/1 3/2/1
f 7/3/1 3/3/1 6/3/1
f 8/3/1 5/3/1 4/3/1
f 8/2/1 4/2/1 7/2/1
f 9/3/1 5/3/1 8/3/1
f 10/2/1 7/2/1 6/2/1
f 10/2/1 6/2/1 1/2/1
f 10/2/1 9/2/1 8/2/1
f 10/2/1 8/2/1 7/2/1
f 11/2/1 9/2/1 10/2/1
f 12/1/1 11/1/1 10/1/1
f 13/2/1 9/2/1 11/2/1
f 13/1/1 11/1/1 12/1/1
f 14/2/1 9/2/1 13/2/1
f 15/3/1 13/3/1 12/3/1
f 15/3/1 14/3/1 13/3/1
f 16/3/1 14/3/1 15/3/1
f 17/3/1 14/3/1 16/3/1
f 18/3/1 14/3/1 17/3/1
f 19/2/1 16/2/1 15/2/1
f 19/1/1 17/1/1 16/1/1
f 20/2/1 18/2/1 17/2/1
f 20/1/1 17/1/1 19/1/1
f 21/2/1 19/2/1 15/2/1
f 21/2/1 20/2/1 19/2/1
f 22/2/1 20/2/1 21/2/1
f 23/2/1 18/2/1 20/2/1
f 23/2/1 20/2/1 22/2/1
f 24/3/1 22/3/1 21/3/1
f 25/1/1 23/1/1 22/1/1
f 25/3/1 22/3/1 24/3/1
f 26/1/1 23/1/1 25/1/1
f 27/1/1 23/1/1 26/1/1
f 28/2/1 25/2/1 24/2/1
f 28/2/1 26/2/1 25/2/1
f 29/2/1 26/2/1 28/2/1
f 30/2/1 26/2/1 29/2/1
f 31/3/1 27/3/1 26/3/1
f 31/2/1 26/2/1 30/2/1
f 32/3/1 27/3/1 31/3/1
f 33/3/1 27/3/1 32/3/1
f 34/3/1 29/3/1 28/3/1
f 35/3/1 29/3/1 34/3/1
f 36/2/1 30/2/1 29/2/1
f 36/3/1 29/3/1 35/3/1
f 37/1/1 31/1/1 30/1/1
f 37/2/1 30/2/1 36/2/1
f 37/1/1 32/1/1 31/1/1
f 38/1/1 32/1/1 37/1/1
f 39/1/1 32/1/1 38/1/1
f 40/2/1 33/2/1 32/2/1
f 40/1/1 32/1/1 39/1/1
f 41/2/1 33/2/1 40/2/1
f 42/2/1 35/2/1 34/2/1
f 43/1/1 36/1/1 35/1/1
f 43/2/1 35/2/1 42/2/1
f 43/1/1 37/1/1 36/1/1
f 44/2/1 38/2/1 37/2/1
f 44/1/1 37/1/1 43/1/1
f 45/3/1 39/3/1 38/3/1
f 45/2/1 38/2/1 44/2/1
f 46/1/1 40/1/1 39/1/1
f 46/3/1 39/3/1 45/3/1
f 47/3/1 41/3/1 40/3/1
f 47/1/1 40/1/1 46/1/1
f 48/3/1 41/3/1 47/3/1
f 49/3/2 50/3/2 55/3/2
f 55/3/2 50/3/2 56/3/2
f 50/1/2 51/1/2 57/1/2
f 56/3/2 50/3/2 57/3/2
f 51/2/2 52/2/2 58/2/2
f 57/1/2 51/1/2 58/1/2
f 52/3/2 53/3/2 59/3/2
f 58/2/2 52/2/2 59/2/2
f 53/2/2 54/2/2 60/2/2
f 59/3/2 53/3/2 60/3/2
f 60/2/2 54/2/2 61/2/2
f 55/1/2 56/1/2 62/1/2
f 58/3/2 59/3/2 63/3/2
f 62/1/2 56/1/2 63/1/2
f 56/3/2 57/3/2 63/3/2
f 60/3/2 61/3/2 63/3/2
f 59/3/2 60/3/2 63/3/2
f 57/3/2 58/3/2 63/3/2
f 63/3/2 61/3/2 64/3/2
f 62/2/2 63/2/2 65/2/2
f 63/2/2 64/2/2 65/2/2
f 65/2/2 64/2/2 66/2/2
f 66/2/2 64/2/2 67/2/2
f 67/2/2 64/2/2 68/2/2
f 68/2/2 64/2/2 69/2/2
f 69/2/2 64/2/2 70/2/2
f 65/3/2 66/3/2 71/3/2
f 66/2/2 67/2/2 72/2/2
f 71/3/2 66/3/2 72/3/2
f 67/1/2 68/1/2 73/1/2
f 72/2/2 67/2/2 73/2/2
f 68/3/2 69/3/2 74/3/2
f 73/1/2 68/1/2 74/1/2
f 69/1/2 70/1/2 75/1/2
f 74/3/2 69/3/2 75/3/2
f 71/2/2 72/2/2 76/2/2
f 72/2/2 73/2/2 76/2/2
f 74/2/2 75/2/2 76/2/2
f 73/2/2 74/2/2 76/2/2
f 76/2/2 75/2/2 77/2/2
f 75/1/2 70/1/2 78/1/2
f 77/2/2 75/2/2 78/2/2
f 78/1/2 70/1/2 79/1/2
f 76/1/2 77/1/2 80/1/2
f 77/3/2 78/3/2 80/3/2
f 78/3/2 79/3/2 80/3/2
f 80/3/2 79/3/2 81/3/2
f 81/3/2 79/3/2 82/3/2
f 76/1/2 80/1/2 83/1/2
f 80/1/2 81/1/2 83/1/2
f 81/2/2 82/2/2 84/2/2
f 83/1/2 81/1/2 84/1/2
f 83/2/2 84/2/2 85/2/2
f 84/2/2 82/2/2 86/2/2
f 85/2/2 84/2/2 86/2/2
f 86/2/2 82/2/2 87/2/2
f 87/2/2 82/2/2 88/2/2
f 85/3/2 86/3/2 89/3/2
f 89/3/2 86/3/2 90/3/2
f 90/3/2 86/3/2 91/3/2
f 86/1/2 87/1/2 92/1/2
f 91/3/2 86/3/2 92/3/2
f 92/1/2 87/1/2 93/1/2
f 87/3/2 88/3/2 94/3/2
f 93/1/2 87/1/2 94/1/2
f 85/3/2 89/3/2 95/3/2
f 89/2/2 90/2/2 96/2/2
f 95/3/2 89/3/2 96/3/2
f 90/1/2 91/1/2 97/1/2
f 96/2/2 90/2/2 97/2/2
f 91/2/2 92/2/2 98/2/2
f 97/1/2 91/1/2 98/1/2
f 92/3/2 93/3/2 99/3/2
f 98/2/2 92/2/2 99/2/2
f 93/2/2 94/2/2 100/2/2
f 99/3/2 93/3/2 100/3/2
f 94/3/2 88/3/2 101/3/2
f 100/2/2 94/2/2 101/2/2
f 101/3/2 88/3/2 102/3/2
f 112/3/3 108/3/3 107/3/3
f 112/2/3 109/2/3 108/2/3
f 113/3/3 110/3/3 109/3/3
f 113/2/3 109/2/3 112/2/3
f 114/2/3 104/2/3 103/2/3
f 115/2/3 104/2/3 114/2/3
f 116/1/3 105/1/3 104/1/3
f 116/2/3 104/2/3 115/2/3
f 117/3/3 106/3/3 105/3/3
f 117/1/3 105/1/3 116/1/3
f 118/2/3 107/2/3 106/2/3
f 119/3/3 112/3/3 107/3/3
f 119/2/3 107/2/3 118/2/3
f 119/3/3 113/3/3 112/3/3
f 120/3/3 113/3/3 119/3/3
f 121/3/3 110/3/3 113/3/3
f 121/3/3 113/3/3 120/3/3
f 122/2/3 111/2/3 110/2/3
f 122/3/3 110/3/3 121/3/3
f 123/2/3 111/2/3 122/2/3
f 124/2/3 121/2/3 120/2/3
f 124/3/3 122/3/3 121/3/3
f 124/3/3 123/3/3 122/3/3
f 125/3/3 123/3/3 124/3/3
f 126/1/3 115/1/3 114/1/3
f 126/2/3 116/2/3 115/2/3
f 127/3/3 117/3/3 116/3/3
f 127/2/3 116/2/3 126/2/3
f 128/1/3 126/1/3 114/1/3
f 128/3/3 127/3/3 126/3/3
f 129/3/3 117/3/3 127/3/3
f 129/3/3 127/3/3 128/3/3
f 130/3/3 106/3/3 117/3/3
f 130/3/3 117/3/3 129/3/3
f 131/2/3 118/2/3 106/2/3
f 131/3/3 106/3/3 130/3/3
f 132/1/3 119/1/3 118/1/3
f 132/2/3 118/2/3 131/2/3
f 133/3/3 120/3/3 119/3/3
f 133/1/3 119/1/3 132/1/3
f 134/2/3 124/2/3 120/2/3
f 134/3/3 120/3/3 133/3/3
f 135/1/3 129/1/3 128/1/3
f 135/1/3 128/1/3 114/1/3
f 136/1/3 129/1/3 135/1/3
f 137/3/3 132/3/3 131/3/3
f 137/3/3 131/3/3 130/3/3
f 138/1/3 134/1/3 133/1/3
f 138/3/3 132/3/3 137/3/3
f 138/1/3 133/1/3 132/1/3
f 139/1/3 125/1/3 124/1/3
f 139/2/3 124/2/3 134/2/3
f 140/3/3 123/3/3 125/3/3
f 140/1/3 125/1/3 139/1/3
f 141/3/3 136/3/3 135/3/3
f 142/1/3 129/1/3 136/1/3
f 142/3/3 136/3/3 141/3/3
f 143/2/3 130/2/3 129/2/3
f 143/1/3 129/1/3 142/1/3
f 144/3/3 137/3/3 130/3/3
f 144/2/3 130/2/3 143/2/3
f 145/2/3 138/2/3 137/2/3
f 145/3/3 137/3/3 144/3/3
f 146/1/3 134/1/3 138/1/3
f 146/2/3 138/2/3 145/2/3
f 147/2/3 139/2/3 134/2/3
f 147/1/3 134/1/3 146/1/3
f 148/3/3 140/3/3 139/3/3
f 148/2/3 139/2/3 147/2/3
f 149/3/3 123/3/3 140/3/3
f 149/3/3 140/3/3 148/3/3
f 150/3/4 151/3/4 159/3/4
f 151/2/4 152/2/4 160/2/4
f 159/3/4 151/3/4 160/3/4
f 157/3/4 158/3/4 161/3/4
f 156/2/4 157/2/4 161/2/4
f 161/3/4 158/3/4 162/3/4
f 154/1/4 155/1/4 163/1/4
f 155/3/4 156/3/4 163/3/4
f 156/2/4 161/2/4 164/2/4
f 163/3/4 156/3/4 164/3/4
f 161/1/4 162/1/4 165/1/4
f 164/2/4 161/2/4 165/2/4
f 160/2/4 152/2/4 166/2/4
f 152/3/4 153/3/4 166/3/4
f 153/2/4 154/2/4 167/2/4
f 166/3/4 153/3/4 167/3/4
f 154/1/4 163/1/4 168/1/4
f 167/2/4 154/2/4 168/2/4
f 163/2/4 164/2/4 169/2/4
f 168/1/4 163/1/4 169/1/4
f 160/2/4 166/2/4 170/2/4
f 159/1/4 160/1/4 170/1/4
f 170/2/4 166/2/4 171/2/4
f 159/1/4 170/1/4 172/1/4
f 170/3/4 171/3/4 173/3/4
f 172/1/4 170/1/4 173/1/4
f 167/2/4 168/2/4 174/2/4
f 166/1/4 167/1/4 174/1/4
f 168/3/4 169/3/4 175/3/4
f 174/2/4 168/2/4 175/2/4
f 166/1/4 174/1/4 176/1/4
f 174/3/4 175/3/4 176/3/4
f 176/3/4 175/3/4 177/3/4
f 172/3/4 173/3/4 178/3/4
f 173/3/4 171/3/4 179/3/4
f 178/3/4 173/3/4 179/3/4
f 175/3/4 169/3/4 180/3/4
f 177/3/4 175/3/4 180/3/4
f 169/2/4 164/2/4 181/2/4
f 180/3/4 169/3/4 181/3/4
f 165/1/4 162/1/4 182/1/4
f 164/3/4 165/3/4 182/3/4
f 182/1/4 162/1/4 183/1/4
f 178/2/4 179/2/4 184/2/4
f 179/3/4 171/3/4 185/3/4
f 184/2/4 179/2/4 185/2/4
f 171/2/4 166/2/4 186/2/4
f 185/3/4 171/3/4 186/3/4
f 166/1/4 176/1/4 187/1/4
f 186/2/4 166/2/4 187/2/4
f 176/1/4 177/1/4 187/1/4
f 177/3/4 180/3/4 188/3/4
f 187/1/4 177/1/4 188/1/4
f 180/2/4 181/2/4 189/2/4
f 188/3/4 180/3/4 189/3/4
f 181/2/4 164/2/4 190/2/4
f 189/2/4 181/2/4 190/2/4
f 182/3/4 183/3/4 190/3/4
f 164/3/4 182/3/4 190/3/4
f 190/3/4 183/3/4 191/3/4
f 196/2/5 193/2/5 192/2/5
f 196/1/5 194/1/5 193/1/5
f 197/3/5 195/3/5 194/3/5
f 197/1/5 194/1/5 196/1/5
f 198/3/5 195/3/5 197/3/5
f 199/2/5 196/2/5 192/2/5
f 199/2/5 197/2/5 196/2/5
f 199/2/5 198/2/5 197/2/5
f 200/2/5 198/2/5 199/2/5
f 201/3/5 195/3/5 198/3/5
f 201/2/5 198/2/5 200/2/5
f 202/3/5 200/3/5 199/3/5
f 202/2/5 199/2/5 192/2/5
f 203/1/5 201/1/5 200/1/5
f 203/3/5 200/3/5 202/3/5
f 204/1/5 201/1/5 203/1/5
f 205/3/5 195/3/5 201/3/5
f 205/1/5 201/1/5 204/1/5
f 206/3/5 195/3/5 205/3/5
f 207/2/5 204/2/5 203/2/5
f 207/2/5 202/2/5 192/2/5
f 207/2/5 203/2/5 202/2/5
f 208/2/5 204/2/5 207/2/5
f 209/1/5 206/1/5 205/1/5
f 209/2/5 204/2/5 208/2/5
f 209/1/5 205/1/5 204/1/5
f 210/1/5 206/1/5 209/1/5
f 211/2/5 207/2/5 192/2/5
f 212/3/5 208/3/5 207/3/5
f 212/2/5 207/2/5 211/2/5
f 213/2/5 209/2/5 208/2/5
f 213/3/5 208/3/5 212/3/5
f 213/2/5 210/2/5 209/2/5
f 214/2/5 210/2/5 213/2/5
f 215/3/5 212/3/5 211/3/5
f 215/3/5 213/3/5 212/3/5
f 215/3/5 214/3/5 213/3/5
f 216/3/5 214/3/5 215/3/5
f 217/3/5 215/3/5 211/3/5
f 218/1/5 216/1/5 215/1/5
f 218/3/5 215/3/5 217/3/5
f 219/3/5 214/3/5 216/3/5
f 219/1/5 216/1/5 218/1/5
f 220/3/5 214/3/5 219/3/5
f 221/2/5 218/2/5 217/2/5
f 221/2/5 219/2/5 218/2/5
f 221/2/5 220/2/5 219/2/5
f 222/2/5 220/2/5 221/2/5
f 223/3/5 222/3/5 221/3/5
f 223/2/5 220/2/5 222/2/5
f 224/2/5 220/2/5 223/2/5
f 225/2/5 220/2/5 224/2/5
f 226/3/5 223/3/5 221/3/5
f 227/1/5 224/1/5 223/1/5
f 227/3/5 223/3/5 226/3/5
f 228/3/5 225/3/5 224/3/5
f 228/1/5 224/1/5 227/1/5
f 229/2/5 220/2/5 225/2/5
f 229/3/5 225/3/5 228/3/5
f 230/2/5 220/2/5 229/2/5
f 231/2/6 232/2/6 234/2/6
f 234/2/6 232/2/6 235/2/6
f 232/3/6 233/3/6 236/3/6
f 235/2/6 232/2/6 236/2/6
f 236/3/6 233/3/6 237/3/6
f 237/3/6 233/3/6 238/3/6
f 234/1/6 235/1/6 239/1/6
f 235/3/6 236/3/6 239/3/6
f 236/3/6 237/3/6 239/3/6
f 237/2/6 238/2/6 240/2/6
f 239/3/6 237/3/6 240/3/6
f 240/2/6 238/2/6 241/2/6
f 241/2/6 238/2/6 242/2/6
f 234/1/6 239/1/6 243/1/6
f 239/2/6 240/2/6 243/2/6
f 240/2/6 241/2/6 243/2/6
f 243/2/6 241/2/6 244/2/6
f 241/1/6 242/1/6 245/1/6
f 244/2/6 241/2/6 245/2/6
f 245/1/6 242/1/6 246/1/6
f 243/1/6 244/1/6 247/1/6
f 244/3/6 245/3/6 248/3/6
f 247/1/6 244/1/6 248/1/6
f 245/3/6 246/3/6 248/3/6
f 248/3/6 246/3/6 249/3/6
f 249/3/6 246/3/6 250/3/6
f 246/1/6 242/1/6 251/1/6
f 250/3/6 246/3/6 251/3/6
f 234/1/6 243/1/6 252/1/6
f 243/1/6 247/1/6 252/1/6
f 247/2/6 248/2/6 253/2/6
f 252/1/6 247/1/6 253/1/6
f 248/2/6 249/2/6 253/2/6
f 249/3/6 250/3/6 254/3/6
f 253/2/6 249/2/6 254/2/6
f 250/1/6 251/1/6 255/1/6
f 254/3/6 250/3/6 255/3/6
f 251/1/6 242/1/6 256/1/6
f 255/1/6 251/1/6 256/1/6
f 234/1/6 252/1/6 257/1/6
f 252/2/6 253/2/6 258/2/6
f 257/1/6 252/1/6 258/1/6
f 254/2/6 255/2/6 258/2/6
f 255/2/6 256/2/6 258/2/6
f 253/2/6 254/2/6 258/2/6
f 258/2/6 256/2/6 259/2/6
f 259/2/6 256/2/6 260/2/6
f 257/2/6 258/2/6 261/2/6
f 258/2/6 259/2/6 261/2/6
f 261/2/6 259/2/6 262/2/6
f 262/2/6 259/2/6 263/2/6
f 259/3/6 260/3/6 264/3/6
f 263/2/6 259/2/6 264/2/6
f 261/3/6 262/3/6 265/3/6
f 262/1/6 263/1/6 266/1/6
f 265/3/6 262/3/6 266/3/6
f 263/3/6 264/3/6 267/3/6
f 266/1/6 263/1/6 267/1/6
f 264/3/6 260/3/6 268/3/6
f 267/3/6 264/3/6 268/3/6
f 266/1/6 267/1/6 269/1/6
f 265/1/6 266/1/6 269/1/6
f 269/1/6 267/1/6 270/1/6
f 267/2/6 268/2/6 271/2/6
f 270/1/6 267/1/6 271/1/6
f 271/2/6 268/2/6 272/2/6
f 272/2/6 268/2/6 273/2/6
f 269/3/6 270/3/6 274/3/6
f 270/1/6 271/1/6 275/1/6
f 274/3/6 270/3/6 275/3/6
f 271/1/6 272/1/6 275/1/6
f 272/3/6 273/3/6 276/3/6
f 275/1/6 272/1/6 276/1/6
f 276/3/6 273/3/6 277/3/6
