# MagicaVoxel @ Ephtracy

# group
o 

# material
mtllib Player.mtl
usemtl palette

# normals
vn -1 0 0
vn 1 0 0
vn 0 0 1
vn 0 0 -1
vn 0 -1 0
vn 0 1 0

# texcoords
vt 0.146484 0.5
vt 0.173828 0.5
vt 0.427734 0.5
vt 0.583984 0.5
vt 0.623047 0.5
vt 0.904297 0.5
vt 0.958984 0.5
vt 0.994141 0.5

# verts
v -0.5 0.1 0
v -0.5 0.1 -0.3
v -0.5 0.2 -0.3
v -0.5 0.2 -0.4
v -0.5 0.3 -0.2
v -0.5 0.3 -0.4
v -0.5 0.5 0
v -0.5 0.5 -0.2
v -0.4 0.2 0.1
v -0.4 0.2 0
v -0.4 0.3 -0.2
v -0.4 0.3 -0.4
v -0.4 0.5 0.1
v -0.4 0.5 0
v -0.4 0.5 -0.2
v -0.4 0.5 -0.3
v -0.4 0.5 -0.4
v -0.4 0.6 0.1
v -0.4 0.6 0
v -0.4 0.6 -0.2
v -0.4 0.6 -0.3
v -0.4 0.7 0.1
v -0.4 0.7 -0.1
v -0.4 0.9 0.1
v -0.4 0.9 -0.1
v -0.4 0.9 -0.2
v -0.3 0 0
v -0.3 0 -0.2
v -0.3 0.1 0.1
v -0.3 0.1 0
v -0.3 0.1 -0.2
v -0.3 0.1 -0.3
v -0.3 0.2 0.1
v -0.3 0.2 0
v -0.3 0.2 -0.2
v -0.3 0.2 -0.3
v -0.3 0.2 -0.4
v -0.3 0.3 0.2
v -0.3 0.3 0.1
v -0.3 0.3 -0.3
v -0.3 0.3 -0.4
v -0.3 0.3 -0.5
v -0.3 0.5 0.2
v -0.3 0.5 0.1
v -0.3 0.5 0
v -0.3 0.5 -0.3
v -0.3 0.5 -0.4
v -0.3 0.5 -0.5
v -0.3 0.6 0.1
v -0.3 0.6 0
v -0.3 0.6 -0.2
v -0.3 0.6 -0.3
v -0.3 0.6 -0.4
v -0.3 0.7 -0.2
v -0.3 0.7 -0.3
v -0.2 0 0.1
v -0.2 0 0
v -0.2 0.1 0.1
v -0.2 0.1 0
v -0.2 0.1 -0.3
v -0.2 0.1 -0.4
v -0.2 0.2 0.2
v -0.2 0.2 0.1
v -0.2 0.2 -0.3
v -0.2 0.2 -0.4
v -0.2 0.2 -0.5
v -0.2 0.3 0.2
v -0.2 0.3 0.1
v -0.2 0.3 -0.4
v -0.2 0.3 -0.5
v -0.2 0.5 0.2
v -0.2 0.5 0.1
v -0.2 0.5 -0.4
v -0.2 0.5 -0.5
v -0.2 0.6 0.2
v -0.2 0.6 0.1
v -0.2 0.6 -0.3
v -0.2 0.6 -0.4
v -0.2 0.6 -0.5
v -0.2 0.7 -0.3
v -0.2 0.7 -0.4
v -0.1 0.5 0.5
v -0.1 0.5 0.2
v -0.1 0.6 0.5
v -0.1 0.6 0.2
v -0.1 0.6 0.1
v -0.1 0.7 0.2
v -0.1 0.7 0.1
v 0.1 0 0.1
v 0.1 0 -0.2
v 0.1 0.1 0.1
v 0.1 0.1 0
v 0.1 0.1 -0.2
v 0.1 0.7 -0.1
v 0.1 0.7 -0.2
v 0.1 0.8 0.1
v 0.1 0.8 -0.1
v 0.1 0.9 0.1
v 0.1 0.9 -0.2
v 0.4 0.1 -0.2
v 0.4 0.1 -0.3
v 0.4 0.2 -0.2
v 0.4 0.2 -0.3
v 0.4 0.2 -0.4
v 0.4 0.3 -0.3
v 0.4 0.3 -0.4
v -0.4 0.1 -0.2
v -0.4 0.1 -0.3
v -0.4 0.2 -0.2
v -0.4 0.2 -0.3
v -0.4 0.2 -0.4
v -0.4 0.3 -0.3
v -0.4 0.3 -0.4
v -0.1 0 0.1
v -0.1 0 -0.2
v -0.1 0.1 0.1
v -0.1 0.1 0
v -0.1 0.1 -0.2
v -0.1 0.7 -0.1
v -0.1 0.7 -0.2
v -0.1 0.8 0.1
v -0.1 0.8 -0.1
v -0.1 0.9 0.1
v -0.1 0.9 -0.2
v 0.1 0.5 0.5
v 0.1 0.5 0.2
v 0.1 0.6 0.5
v 0.1 0.6 0.2
v 0.1 0.6 0.1
v 0.1 0.7 0.2
v 0.1 0.7 0.1
v 0.2 0 0.1
v 0.2 0 0
v 0.2 0.1 0.1
v 0.2 0.1 0
v 0.2 0.1 -0.3
v 0.2 0.1 -0.4
v 0.2 0.2 0.2
v 0.2 0.2 0.1
v 0.2 0.2 -0.3
v 0.2 0.2 -0.4
v 0.2 0.2 -0.5
v 0.2 0.3 0.2
v 0.2 0.3 0.1
v 0.2 0.3 -0.4
v 0.2 0.3 -0.5
v 0.2 0.5 0.2
v 0.2 0.5 0.1
v 0.2 0.5 -0.4
v 0.2 0.5 -0.5
v 0.2 0.6 0.2
v 0.2 0.6 0.1
v 0.2 0.6 -0.3
v 0.2 0.6 -0.4
v 0.2 0.6 -0.5
v 0.2 0.7 -0.3
v 0.2 0.7 -0.4
v 0.3 0 0
v 0.3 0 -0.2
v 0.3 0.1 0.1
v 0.3 0.1 0
v 0.3 0.1 -0.2
v 0.3 0.1 -0.3
v 0.3 0.2 0.1
v 0.3 0.2 0
v 0.3 0.2 -0.2
v 0.3 0.2 -0.3
v 0.3 0.2 -0.4
v 0.3 0.3 0.2
v 0.3 0.3 0.1
v 0.3 0.3 -0.3
v 0.3 0.3 -0.4
v 0.3 0.3 -0.5
v 0.3 0.5 0.2
v 0.3 0.5 0.1
v 0.3 0.5 0
v 0.3 0.5 -0.3
v 0.3 0.5 -0.4
v 0.3 0.5 -0.5
v 0.3 0.6 0.1
v 0.3 0.6 0
v 0.3 0.6 -0.2
v 0.3 0.6 -0.3
v 0.3 0.6 -0.4
v 0.3 0.7 -0.2
v 0.3 0.7 -0.3
v 0.4 0.2 0.1
v 0.4 0.2 0
v 0.4 0.3 -0.2
v 0.4 0.3 -0.4
v 0.4 0.5 0.1
v 0.4 0.5 0
v 0.4 0.5 -0.2
v 0.4 0.5 -0.3
v 0.4 0.5 -0.4
v 0.4 0.6 0.1
v 0.4 0.6 0
v 0.4 0.6 -0.1
v 0.4 0.6 -0.2
v 0.4 0.6 -0.3
v 0.4 0.8 0.1
v 0.4 0.8 -0.1
v 0.4 0.9 0.1
v 0.4 0.9 -0.2
v 0.5 0.1 0
v 0.5 0.1 -0.3
v 0.5 0.2 -0.3
v 0.5 0.2 -0.4
v 0.5 0.3 -0.2
v 0.5 0.3 -0.4
v 0.5 0.5 0
v 0.5 0.5 -0.2
v -0.1 0.5 0.5
v -0.1 0.6 0.5
v 0.1 0.5 0.5
v 0.1 0.6 0.5
v -0.3 0.3 0.2
v -0.3 0.5 0.2
v -0.2 0.2 0.2
v -0.2 0.3 0.2
v -0.2 0.5 0.2
v -0.2 0.6 0.2
v -0.1 0.5 0.2
v -0.1 0.6 0.2
v -0.1 0.7 0.2
v 0.1 0.5 0.2
v 0.1 0.6 0.2
v 0.1 0.7 0.2
v 0.2 0.2 0.2
v 0.2 0.3 0.2
v 0.2 0.5 0.2
v 0.2 0.6 0.2
v 0.3 0.3 0.2
v 0.3 0.5 0.2
v -0.4 0.2 0.1
v -0.4 0.5 0.1
v -0.4 0.6 0.1
v -0.4 0.7 0.1
v -0.4 0.9 0.1
v -0.3 0.1 0.1
v -0.3 0.2 0.1
v -0.3 0.3 0.1
v -0.3 0.5 0.1
v -0.3 0.6 0.1
v -0.2 0 0.1
v -0.2 0.1 0.1
v -0.2 0.2 0.1
v -0.2 0.3 0.1
v -0.2 0.5 0.1
v -0.2 0.6 0.1
v -0.2 0.7 0.1
v -0.2 0.9 0.1
v -0.1 0 0.1
v -0.1 0.1 0.1
v -0.1 0.6 0.1
v -0.1 0.7 0.1
v -0.1 0.8 0.1
v -0.1 0.9 0.1
v 0.1 0 0.1
v 0.1 0.1 0.1
v 0.1 0.6 0.1
v 0.1 0.7 0.1
v 0.1 0.8 0.1
v 0.1 0.9 0.1
v 0.2 0 0.1
v 0.2 0.1 0.1
v 0.2 0.2 0.1
v 0.2 0.3 0.1
v 0.2 0.5 0.1
v 0.2 0.6 0.1
v 0.2 0.8 0.1
v 0.3 0.1 0.1
v 0.3 0.2 0.1
v 0.3 0.3 0.1
v 0.3 0.5 0.1
v 0.3 0.6 0.1
v 0.4 0.2 0.1
v 0.4 0.5 0.1
v 0.4 0.6 0.1
v 0.4 0.8 0.1
v 0.4 0.9 0.1
v -0.5 0.1 0
v -0.5 0.5 0
v -0.4 0.1 0
v -0.4 0.2 0
v -0.4 0.5 0
v -0.4 0.6 0
v -0.3 0 0
v -0.3 0.1 0
v -0.3 0.2 0
v -0.3 0.5 0
v -0.3 0.6 0
v -0.2 0 0
v -0.2 0.1 0
v 0.2 0 0
v 0.2 0.1 0
v 0.3 0 0
v 0.3 0.1 0
v 0.3 0.2 0
v 0.3 0.5 0
v 0.3 0.6 0
v 0.4 0.1 0
v 0.4 0.2 0
v 0.4 0.5 0
v 0.4 0.6 0
v 0.5 0.1 0
v 0.5 0.5 0
v -0.1 0.7 -0.1
v -0.1 0.8 -0.1
v 0.1 0.7 -0.1
v 0.1 0.8 -0.1
v -0.5 0.3 -0.2
v -0.5 0.5 -0.2
v -0.4 0.1 -0.2
v -0.4 0.2 -0.2
v -0.4 0.3 -0.2
v -0.4 0.5 -0.2
v -0.4 0.6 -0.2
v -0.4 0.9 -0.2
v -0.3 0 -0.2
v -0.3 0.1 -0.2
v -0.3 0.2 -0.2
v -0.3 0.6 -0.2
v -0.3 0.7 -0.2
v -0.1 0 -0.2
v -0.1 0.1 -0.2
v -0.1 0.7 -0.2
v -0.1 0.9 -0.2
v 0.1 0 -0.2
v 0.1 0.1 -0.2
v 0.1 0.7 -0.2
v 0.1 0.9 -0.2
v 0.3 0 -0.2
v 0.3 0.1 -0.2
v 0.3 0.2 -0.2
v 0.3 0.6 -0.2
v 0.3 0.7 -0.2
v 0.4 0.1 -0.2
v 0.4 0.2 -0.2
v 0.4 0.3 -0.2
v 0.4 0.5 -0.2
v 0.4 0.6 -0.2
v 0.4 0.9 -0.2
v 0.5 0.3 -0.2
v 0.5 0.5 -0.2
v -0.5 0.1 -0.3
v -0.5 0.2 -0.3
v -0.4 0.1 -0.3
v -0.4 0.2 -0.3
v -0.4 0.3 -0.3
v -0.4 0.5 -0.3
v -0.4 0.6 -0.3
v -0.3 0.1 -0.3
v -0.3 0.2 -0.3
v -0.3 0.3 -0.3
v -0.3 0.5 -0.3
v -0.3 0.6 -0.3
v -0.3 0.7 -0.3
v -0.2 0.1 -0.3
v -0.2 0.2 -0.3
v -0.2 0.6 -0.3
v -0.2 0.7 -0.3
v 0.2 0.1 -0.3
v 0.2 0.2 -0.3
v 0.2 0.6 -0.3
v 0.2 0.7 -0.3
v 0.3 0.1 -0.3
v 0.3 0.2 -0.3
v 0.3 0.3 -0.3
v 0.3 0.5 -0.3
v 0.3 0.6 -0.3
v 0.3 0.7 -0.3
v 0.4 0.1 -0.3
v 0.4 0.2 -0.3
v 0.4 0.3 -0.3
v 0.4 0.5 -0.3
v 0.4 0.6 -0.3
v 0.5 0.1 -0.3
v 0.5 0.2 -0.3
v -0.5 0.2 -0.4
v -0.5 0.3 -0.4
v -0.4 0.2 -0.4
v -0.4 0.3 -0.4
v -0.4 0.5 -0.4
v -0.3 0.2 -0.4
v -0.3 0.3 -0.4
v -0.3 0.5 -0.4
v -0.3 0.6 -0.4
v -0.2 0.1 -0.4
v -0.2 0.2 -0.4
v -0.2 0.3 -0.4
v -0.2 0.5 -0.4
v -0.2 0.6 -0.4
v -0.2 0.7 -0.4
v 0.2 0.1 -0.4
v 0.2 0.2 -0.4
v 0.2 0.3 -0.4
v 0.2 0.5 -0.4
v 0.2 0.6 -0.4
v 0.2 0.7 -0.4
v 0.3 0.2 -0.4
v 0.3 0.3 -0.4
v 0.3 0.5 -0.4
v 0.3 0.6 -0.4
v 0.4 0.2 -0.4
v 0.4 0.3 -0.4
v 0.4 0.5 -0.4
v 0.5 0.2 -0.4
v 0.5 0.3 -0.4
v -0.3 0.3 -0.5
v -0.3 0.5 -0.5
v -0.2 0.2 -0.5
v -0.2 0.3 -0.5
v -0.2 0.5 -0.5
v -0.2 0.6 -0.5
v 0.2 0.2 -0.5
v 0.2 0.3 -0.5
v 0.2 0.5 -0.5
v 0.2 0.6 -0.5
v 0.3 0.3 -0.5
v 0.3 0.5 -0.5
v -0.2 0 0.1
v -0.1 0 0.1
v 0.1 0 0.1
v 0.2 0 0.1
v -0.3 0 0
v -0.2 0 0
v 0.2 0 0
v 0.3 0 0
v -0.3 0 -0.2
v -0.1 0 -0.2
v 0.1 0 -0.2
v 0.3 0 -0.2
v -0.3 0.1 0.1
v -0.2 0.1 0.1
v -0.1 0.1 0.1
v 0.1 0.1 0.1
v 0.2 0.1 0.1
v 0.3 0.1 0.1
v -0.5 0.1 0
v -0.4 0.1 0
v -0.3 0.1 0
v -0.2 0.1 0
v -0.1 0.1 0
v 0.1 0.1 0
v 0.2 0.1 0
v 0.3 0.1 0
v 0.4 0.1 0
v 0.5 0.1 0
v -0.4 0.1 -0.2
v -0.3 0.1 -0.2
v -0.1 0.1 -0.2
v 0.1 0.1 -0.2
v 0.3 0.1 -0.2
v 0.4 0.1 -0.2
v -0.5 0.1 -0.3
v -0.4 0.1 -0.3
v -0.3 0.1 -0.3
v -0.2 0.1 -0.3
v 0.2 0.1 -0.3
v 0.3 0.1 -0.3
v 0.4 0.1 -0.3
v 0.5 0.1 -0.3
v -0.2 0.1 -0.4
v 0.2 0.1 -0.4
v -0.2 0.2 0.2
v 0.2 0.2 0.2
v -0.4 0.2 0.1
v -0.3 0.2 0.1
v -0.2 0.2 0.1
v 0.2 0.2 0.1
v 0.3 0.2 0.1
v 0.4 0.2 0.1
v -0.4 0.2 0
v -0.3 0.2 0
v 0.3 0.2 0
v 0.4 0.2 0
v -0.4 0.2 -0.2
v -0.3 0.2 -0.2
v 0.3 0.2 -0.2
v 0.4 0.2 -0.2
v -0.5 0.2 -0.3
v -0.4 0.2 -0.3
v -0.3 0.2 -0.3
v -0.2 0.2 -0.3
v 0.2 0.2 -0.3
v 0.3 0.2 -0.3
v 0.4 0.2 -0.3
v 0.5 0.2 -0.3
v -0.5 0.2 -0.4
v -0.4 0.2 -0.4
v -0.3 0.2 -0.4
v -0.2 0.2 -0.4
v 0.2 0.2 -0.4
v 0.3 0.2 -0.4
v 0.4 0.2 -0.4
v 0.5 0.2 -0.4
v -0.2 0.2 -0.5
v 0.2 0.2 -0.5
v -0.3 0.3 0.2
v -0.2 0.3 0.2
v 0.2 0.3 0.2
v 0.3 0.3 0.2
v -0.3 0.3 0.1
v -0.2 0.3 0.1
v 0.2 0.3 0.1
v 0.3 0.3 0.1
v -0.4 0.3 -0.3
v -0.3 0.3 -0.3
v 0.3 0.3 -0.3
v 0.4 0.3 -0.3
v -0.4 0.3 -0.4
v -0.3 0.3 -0.4
v -0.2 0.3 -0.4
v 0.2 0.3 -0.4
v 0.3 0.3 -0.4
v 0.4 0.3 -0.4
v -0.3 0.3 -0.5
v -0.2 0.3 -0.5
v 0.2 0.3 -0.5
v 0.3 0.3 -0.5
v -0.1 0.5 0.5
v 0.1 0.5 0.5
v -0.1 0.5 0.2
v 0.1 0.5 0.2
v -0.4 0.6 0.1
v -0.3 0.6 0.1
v 0.3 0.6 0.1
v 0.4 0.6 0.1
v -0.4 0.6 0
v -0.3 0.6 0
v 0.3 0.6 0
v 0.4 0.6 0
v -0.5 0.3 -0.2
v -0.4 0.3 -0.2
v 0.4 0.3 -0.2
v 0.5 0.3 -0.2
v -0.5 0.3 -0.4
v -0.4 0.3 -0.4
v 0.4 0.3 -0.4
v 0.5 0.3 -0.4
v -0.3 0.5 0.2
v -0.2 0.5 0.2
v 0.2 0.5 0.2
v 0.3 0.5 0.2
v -0.4 0.5 0.1
v -0.3 0.5 0.1
v -0.2 0.5 0.1
v 0.2 0.5 0.1
v 0.3 0.5 0.1
v 0.4 0.5 0.1
v -0.5 0.5 0
v -0.4 0.5 0
v -0.3 0.5 0
v 0.3 0.5 0
v 0.4 0.5 0
v 0.5 0.5 0
v -0.5 0.5 -0.2
v -0.4 0.5 -0.2
v 0.4 0.5 -0.2
v 0.5 0.5 -0.2
v -0.4 0.5 -0.3
v -0.3 0.5 -0.3
v 0.3 0.5 -0.3
v 0.4 0.5 -0.3
v -0.4 0.5 -0.4
v -0.3 0.5 -0.4
v -0.2 0.5 -0.4
v 0.2 0.5 -0.4
v 0.3 0.5 -0.4
v 0.4 0.5 -0.4
v -0.3 0.5 -0.5
v -0.2 0.5 -0.5
v 0.2 0.5 -0.5
v 0.3 0.5 -0.5
v -0.1 0.6 0.5
v 0.1 0.6 0.5
v -0.2 0.6 0.2
v -0.1 0.6 0.2
v 0.1 0.6 0.2
v 0.2 0.6 0.2
v -0.2 0.6 0.1
v -0.1 0.6 0.1
v 0.1 0.6 0.1
v 0.2 0.6 0.1
v -0.4 0.6 -0.2
v -0.3 0.6 -0.2
v 0.3 0.6 -0.2
v 0.4 0.6 -0.2
v -0.4 0.6 -0.3
v -0.3 0.6 -0.3
v -0.2 0.6 -0.3
v 0.2 0.6 -0.3
v 0.3 0.6 -0.3
v 0.4 0.6 -0.3
v -0.3 0.6 -0.4
v -0.2 0.6 -0.4
v 0.2 0.6 -0.4
v 0.3 0.6 -0.4
v -0.2 0.6 -0.5
v 0.2 0.6 -0.5
v -0.1 0.7 0.2
v 0.1 0.7 0.2
v -0.1 0.7 0.1
v 0.1 0.7 0.1
v -0.1 0.7 -0.1
v 0.1 0.7 -0.1
v -0.3 0.7 -0.2
v -0.1 0.7 -0.2
v 0.1 0.7 -0.2
v 0.3 0.7 -0.2
v -0.3 0.7 -0.3
v -0.2 0.7 -0.3
v 0.2 0.7 -0.3
v 0.3 0.7 -0.3
v -0.2 0.7 -0.4
v 0.2 0.7 -0.4
v -0.1 0.8 0.1
v 0.1 0.8 0.1
v -0.1 0.8 -0.1
v 0.1 0.8 -0.1
v -0.4 0.9 0.1
v -0.2 0.9 0.1
v -0.1 0.9 0.1
v 0.1 0.9 0.1
v 0.4 0.9 0.1
v -0.4 0.9 -0.1
v -0.2 0.9 -0.1
v -0.4 0.9 -0.2
v -0.1 0.9 -0.2
v 0.1 0.9 -0.2
v 0.4 0.9 -0.2

# faces
f 3/5/1 2/5/1 1/5/1
f 5/5/1 3/5/1 1/5/1
f 5/5/1 4/5/1 3/5/1
f 6/5/1 4/5/1 5/5/1
f 7/5/1 5/5/1 1/5/1
f 8/5/1 5/5/1 7/5/1
f 13/4/1 10/4/1 9/4/1
f 14/4/1 10/4/1 13/4/1
f 15/4/1 12/4/1 11/4/1
f 16/4/1 12/4/1 15/4/1
f 17/4/1 12/4/1 16/4/1
f 19/4/1 15/4/1 14/4/1
f 19/4/1 16/4/1 15/4/1
f 20/4/1 16/4/1 19/4/1
f 21/4/1 16/4/1 20/4/1
f 22/7/1 19/7/1 18/7/1
f 22/7/1 20/7/1 19/7/1
f 23/7/1 20/7/1 22/7/1
f 24/8/1 23/8/1 22/8/1
f 25/7/1 20/7/1 23/7/1
f 25/8/1 23/8/1 24/8/1
f 26/7/1 20/7/1 25/7/1
f 30/3/1 28/3/1 27/3/1
f 31/3/1 28/3/1 30/3/1
f 33/4/1 30/4/1 29/4/1
f 34/4/1 30/4/1 33/4/1
f 35/4/1 32/4/1 31/4/1
f 36/4/1 32/4/1 35/4/1
f 40/4/1 37/4/1 36/4/1
f 41/4/1 37/4/1 40/4/1
f 43/4/1 39/4/1 38/4/1
f 44/4/1 39/4/1 43/4/1
f 47/4/1 42/4/1 41/4/1
f 48/4/1 42/4/1 47/4/1
f 49/4/1 45/4/1 44/4/1
f 50/4/1 45/4/1 49/4/1
f 52/4/1 47/4/1 46/4/1
f 53/4/1 47/4/1 52/4/1
f 54/4/1 52/4/1 51/4/1
f 55/4/1 52/4/1 54/4/1
f 58/3/1 57/3/1 56/3/1
f 59/3/1 57/3/1 58/3/1
f 64/4/1 61/4/1 60/4/1
f 65/4/1 61/4/1 64/4/1
f 67/4/1 63/4/1 62/4/1
f 68/4/1 63/4/1 67/4/1
f 69/4/1 66/4/1 65/4/1
f 70/4/1 66/4/1 69/4/1
f 75/3/1 72/3/1 71/3/1
f 76/3/1 72/3/1 75/3/1
f 78/4/1 74/4/1 73/4/1
f 79/4/1 74/4/1 78/4/1
f 80/4/1 78/4/1 77/4/1
f 81/4/1 78/4/1 80/4/1
f 84/3/1 83/3/1 82/3/1
f 85/3/1 83/3/1 84/3/1
f 87/3/1 86/3/1 85/3/1
f 88/3/1 86/3/1 87/3/1
f 91/3/1 90/3/1 89/3/1
f 92/3/1 90/3/1 91/3/1
f 93/3/1 90/3/1 92/3/1
f 97/7/1 95/7/1 94/7/1
f 98/7/1 97/7/1 96/7/1
f 99/7/1 95/7/1 97/7/1
f 99/7/1 97/7/1 98/7/1
f 102/5/1 101/5/1 100/5/1
f 103/5/1 101/5/1 102/5/1
f 105/5/1 104/5/1 103/5/1
f 106/5/1 104/5/1 105/5/1
f 107/5/2 108/5/2 109/5/2
f 109/5/2 108/5/2 110/5/2
f 110/5/2 111/5/2 112/5/2
f 112/5/2 111/5/2 113/5/2
f 114/3/2 115/3/2 116/3/2
f 116/3/2 115/3/2 117/3/2
f 117/3/2 115/3/2 118/3/2
f 119/7/2 120/7/2 122/7/2
f 121/7/2 122/7/2 123/7/2
f 122/7/2 120/7/2 124/7/2
f 123/7/2 122/7/2 124/7/2
f 125/3/2 126/3/2 127/3/2
f 127/3/2 126/3/2 128/3/2
f 128/3/2 129/3/2 130/3/2
f 130/3/2 129/3/2 131/3/2
f 132/3/2 133/3/2 134/3/2
f 134/3/2 133/3/2 135/3/2
f 136/4/2 137/4/2 140/4/2
f 140/4/2 137/4/2 141/4/2
f 138/4/2 139/4/2 143/4/2
f 143/4/2 139/4/2 144/4/2
f 141/4/2 142/4/2 145/4/2
f 145/4/2 142/4/2 146/4/2
f 147/3/2 148/3/2 151/3/2
f 151/3/2 148/3/2 152/3/2
f 149/4/2 150/4/2 154/4/2
f 154/4/2 150/4/2 155/4/2
f 153/4/2 154/4/2 156/4/2
f 156/4/2 154/4/2 157/4/2
f 158/3/2 159/3/2 161/3/2
f 161/3/2 159/3/2 162/3/2
f 160/4/2 161/4/2 164/4/2
f 164/4/2 161/4/2 165/4/2
f 162/4/2 163/4/2 166/4/2
f 166/4/2 163/4/2 167/4/2
f 167/4/2 168/4/2 171/4/2
f 171/4/2 168/4/2 172/4/2
f 169/4/2 170/4/2 174/4/2
f 174/4/2 170/4/2 175/4/2
f 172/4/2 173/4/2 178/4/2
f 178/4/2 173/4/2 179/4/2
f 175/4/2 176/4/2 180/4/2
f 180/4/2 176/4/2 181/4/2
f 177/4/2 178/4/2 183/4/2
f 183/4/2 178/4/2 184/4/2
f 182/4/2 183/4/2 185/4/2
f 185/4/2 183/4/2 186/4/2
f 187/4/2 188/4/2 191/4/2
f 191/4/2 188/4/2 192/4/2
f 189/4/2 190/4/2 193/4/2
f 193/4/2 190/4/2 194/4/2
f 194/4/2 190/4/2 195/4/2
f 192/4/2 193/4/2 197/4/2
f 193/4/2 194/4/2 197/4/2
f 197/4/2 194/4/2 198/4/2
f 198/4/2 194/4/2 199/4/2
f 199/4/2 194/4/2 200/4/2
f 196/8/2 197/8/2 201/8/2
f 197/8/2 198/8/2 201/8/2
f 198/7/2 199/7/2 202/7/2
f 201/8/2 198/8/2 202/8/2
f 201/7/2 202/7/2 203/7/2
f 202/7/2 199/7/2 204/7/2
f 203/7/2 202/7/2 204/7/2
f 205/5/2 206/5/2 207/5/2
f 205/5/2 207/5/2 209/5/2
f 207/5/2 208/5/2 209/5/2
f 209/5/2 208/5/2 210/5/2
f 205/5/2 209/5/2 211/5/2
f 211/5/2 209/5/2 212/5/2
f 215/3/3 214/3/3 213/3/3
f 216/3/3 214/3/3 215/3/3
f 220/4/3 218/4/3 217/4/3
f 221/4/3 218/4/3 220/4/3
f 223/4/3 220/4/3 219/4/3
f 223/3/3 222/3/3 221/3/3
f 223/4/3 221/4/3 220/4/3
f 224/3/3 222/3/3 223/3/3
f 226/4/3 223/4/3 219/4/3
f 227/3/3 225/3/3 224/3/3
f 228/3/3 225/3/3 227/3/3
f 229/4/3 226/4/3 219/4/3
f 230/4/3 226/4/3 229/4/3
f 231/3/3 227/3/3 226/3/3
f 231/4/3 226/4/3 230/4/3
f 232/3/3 227/3/3 231/3/3
f 233/4/3 231/4/3 230/4/3
f 234/4/3 231/4/3 233/4/3
f 241/4/3 236/4/3 235/4/3
f 242/4/3 236/4/3 241/4/3
f 243/4/3 236/4/3 242/4/3
f 244/7/3 238/7/3 237/7/3
f 246/4/3 241/4/3 240/4/3
f 246/4/3 242/4/3 241/4/3
f 247/4/3 242/4/3 246/4/3
f 248/4/3 242/4/3 247/4/3
f 249/4/3 244/4/3 243/4/3
f 250/7/3 238/7/3 244/7/3
f 250/4/3 244/4/3 249/4/3
f 251/8/3 239/8/3 238/8/3
f 251/7/3 238/7/3 250/7/3
f 252/8/3 239/8/3 251/8/3
f 253/3/3 246/3/3 245/3/3
f 254/4/3 247/4/3 246/4/3
f 254/3/3 246/3/3 253/3/3
f 255/7/3 252/7/3 251/7/3
f 255/7/3 251/7/3 250/7/3
f 256/7/3 252/7/3 255/7/3
f 257/7/3 252/7/3 256/7/3
f 258/7/3 252/7/3 257/7/3
f 260/4/3 247/4/3 254/4/3
f 262/4/3 257/4/3 256/4/3
f 263/4/3 257/4/3 262/4/3
f 265/3/3 260/3/3 259/3/3
f 266/4/3 247/4/3 260/4/3
f 266/3/3 260/3/3 265/3/3
f 267/4/3 247/4/3 266/4/3
f 270/7/3 264/7/3 263/7/3
f 270/7/3 262/7/3 261/7/3
f 270/7/3 263/7/3 262/7/3
f 271/7/3 264/7/3 270/7/3
f 272/4/3 268/4/3 267/4/3
f 272/4/3 267/4/3 266/4/3
f 273/4/3 268/4/3 272/4/3
f 274/4/3 268/4/3 273/4/3
f 275/4/3 270/4/3 269/4/3
f 276/8/3 271/8/3 270/8/3
f 276/4/3 270/4/3 275/4/3
f 277/4/3 275/4/3 274/4/3
f 277/4/3 274/4/3 273/4/3
f 278/4/3 275/4/3 277/4/3
f 279/8/3 271/8/3 276/8/3
f 280/7/3 264/7/3 271/7/3
f 280/8/3 271/8/3 279/8/3
f 281/7/3 264/7/3 280/7/3
f 284/5/3 283/5/3 282/5/3
f 285/5/3 283/5/3 284/5/3
f 286/5/3 283/5/3 285/5/3
f 289/4/3 285/4/3 284/4/3
f 290/4/3 285/4/3 289/4/3
f 291/4/3 287/4/3 286/4/3
f 292/4/3 287/4/3 291/4/3
f 293/3/3 289/3/3 288/3/3
f 294/3/3 289/3/3 293/3/3
f 297/3/3 296/3/3 295/3/3
f 298/3/3 296/3/3 297/3/3
f 302/4/3 299/4/3 298/4/3
f 303/4/3 299/4/3 302/4/3
f 304/4/3 301/4/3 300/4/3
f 305/4/3 301/4/3 304/4/3
f 306/5/3 303/5/3 302/5/3
f 306/5/3 304/5/3 303/5/3
f 307/5/3 304/5/3 306/5/3
f 308/4/4 309/4/4 310/4/4
f 310/4/4 309/4/4 311/4/4
f 312/5/4 313/5/4 316/5/4
f 316/5/4 313/5/4 317/5/4
f 314/4/4 315/4/4 321/4/4
f 321/4/4 315/4/4 322/4/4
f 318/7/4 319/7/4 323/7/4
f 323/7/4 319/7/4 324/7/4
f 320/3/4 321/3/4 325/3/4
f 325/3/4 321/3/4 326/3/4
f 324/7/4 319/7/4 327/7/4
f 327/7/4 319/7/4 328/7/4
f 329/3/4 330/3/4 333/3/4
f 333/3/4 330/3/4 334/3/4
f 331/7/4 332/7/4 337/7/4
f 334/4/4 335/4/4 338/4/4
f 338/4/4 335/4/4 339/4/4
f 336/7/4 337/7/4 342/7/4
f 337/7/4 332/7/4 343/7/4
f 342/7/4 337/7/4 343/7/4
f 340/5/4 341/5/4 344/5/4
f 344/5/4 341/5/4 345/5/4
f 346/5/4 347/5/4 348/5/4
f 348/5/4 347/5/4 349/5/4
f 349/4/4 350/4/4 354/4/4
f 354/4/4 350/4/4 355/4/4
f 351/4/4 352/4/4 356/4/4
f 356/4/4 352/4/4 357/4/4
f 353/4/4 354/4/4 359/4/4
f 359/4/4 354/4/4 360/4/4
f 357/4/4 358/4/4 361/4/4
f 361/4/4 358/4/4 362/4/4
f 363/4/4 364/4/4 367/4/4
f 367/4/4 364/4/4 368/4/4
f 365/4/4 366/4/4 371/4/4
f 371/4/4 366/4/4 372/4/4
f 368/4/4 369/4/4 374/4/4
f 374/4/4 369/4/4 375/4/4
f 370/4/4 371/4/4 376/4/4
f 376/4/4 371/4/4 377/4/4
f 373/5/4 374/5/4 378/5/4
f 378/5/4 374/5/4 379/5/4
f 380/5/4 381/5/4 382/5/4
f 382/5/4 381/5/4 383/5/4
f 383/4/4 384/4/4 386/4/4
f 386/4/4 384/4/4 387/4/4
f 385/4/4 386/4/4 390/4/4
f 390/4/4 386/4/4 391/4/4
f 387/4/4 388/4/4 392/4/4
f 392/4/4 388/4/4 393/4/4
f 389/4/4 390/4/4 395/4/4
f 395/4/4 390/4/4 396/4/4
f 393/4/4 394/4/4 399/4/4
f 399/4/4 394/4/4 400/4/4
f 396/4/4 397/4/4 401/4/4
f 401/4/4 397/4/4 402/4/4
f 398/4/4 399/4/4 403/4/4
f 403/4/4 399/4/4 404/4/4
f 402/4/4 403/4/4 406/4/4
f 406/4/4 403/4/4 407/4/4
f 405/5/4 406/5/4 408/5/4
f 408/5/4 406/5/4 409/5/4
f 410/4/4 411/4/4 413/4/4
f 413/4/4 411/4/4 414/4/4
f 412/4/4 413/4/4 416/4/4
f 414/4/4 415/4/4 416/4/4
f 413/4/4 414/4/4 416/4/4
f 416/4/4 415/4/4 417/4/4
f 417/4/4 415/4/4 418/4/4
f 418/4/4 415/4/4 419/4/4
f 417/4/4 418/4/4 420/4/4
f 420/4/4 418/4/4 421/4/4
f 427/3/5 423/3/5 422/3/5
f 428/3/5 425/3/5 424/3/5
f 430/3/5 427/3/5 426/3/5
f 431/3/5 423/3/5 427/3/5
f 431/3/5 427/3/5 430/3/5
f 432/3/5 429/3/5 428/3/5
f 432/3/5 428/3/5 424/3/5
f 433/3/5 429/3/5 432/3/5
f 442/4/5 435/4/5 434/4/5
f 443/4/5 435/4/5 442/4/5
f 444/4/5 437/4/5 436/4/5
f 445/4/5 437/4/5 444/4/5
f 446/4/5 439/4/5 438/4/5
f 447/4/5 439/4/5 446/4/5
f 450/5/5 441/5/5 440/5/5
f 450/4/5 442/4/5 441/4/5
f 451/4/5 442/4/5 450/4/5
f 452/3/5 445/3/5 444/3/5
f 453/3/5 445/3/5 452/3/5
f 454/4/5 448/4/5 447/4/5
f 455/5/5 449/5/5 448/5/5
f 455/4/5 448/4/5 454/4/5
f 456/5/5 450/5/5 440/5/5
f 457/5/5 450/5/5 456/5/5
f 458/4/5 454/4/5 453/4/5
f 458/4/5 453/4/5 452/4/5
f 458/4/5 452/4/5 451/4/5
f 459/4/5 454/4/5 458/4/5
f 460/4/5 454/4/5 459/4/5
f 461/4/5 454/4/5 460/4/5
f 462/5/5 449/5/5 455/5/5
f 463/5/5 449/5/5 462/5/5
f 464/4/5 460/4/5 459/4/5
f 465/4/5 460/4/5 464/4/5
f 470/4/5 467/4/5 466/4/5
f 471/4/5 467/4/5 470/4/5
f 474/4/5 469/4/5 468/4/5
f 475/4/5 469/4/5 474/4/5
f 476/4/5 473/4/5 472/4/5
f 477/4/5 473/4/5 476/4/5
f 483/4/5 479/4/5 478/4/5
f 484/4/5 479/4/5 483/4/5
f 487/4/5 481/4/5 480/4/5
f 488/4/5 481/4/5 487/4/5
f 490/5/5 483/5/5 482/5/5
f 491/5/5 483/5/5 490/5/5
f 492/4/5 485/4/5 484/4/5
f 493/4/5 485/4/5 492/4/5
f 494/4/5 487/4/5 486/4/5
f 495/4/5 487/4/5 494/4/5
f 496/5/5 489/5/5 488/5/5
f 497/5/5 489/5/5 496/5/5
f 498/4/5 494/4/5 493/4/5
f 499/4/5 494/4/5 498/4/5
f 504/4/5 501/4/5 500/4/5
f 505/4/5 501/4/5 504/4/5
f 506/4/5 503/4/5 502/4/5
f 507/4/5 503/4/5 506/4/5
f 512/4/5 509/4/5 508/4/5
f 513/4/5 509/4/5 512/4/5
f 516/4/5 511/4/5 510/4/5
f 517/4/5 511/4/5 516/4/5
f 518/4/5 514/4/5 513/4/5
f 519/4/5 514/4/5 518/4/5
f 520/4/5 516/4/5 515/4/5
f 521/4/5 516/4/5 520/4/5
f 524/3/5 523/3/5 522/3/5
f 525/3/5 523/3/5 524/3/5
f 530/7/5 527/7/5 526/7/5
f 531/7/5 527/7/5 530/7/5
f 532/8/5 529/8/5 528/8/5
f 533/8/5 529/8/5 532/8/5
f 534/5/6 535/5/6 538/5/6
f 538/5/6 535/5/6 539/5/6
f 536/5/6 537/5/6 540/5/6
f 540/5/6 537/5/6 541/5/6
f 542/4/6 543/4/6 547/4/6
f 547/4/6 543/4/6 548/4/6
f 544/4/6 545/4/6 549/4/6
f 549/4/6 545/4/6 550/4/6
f 546/4/6 547/4/6 553/4/6
f 553/4/6 547/4/6 554/4/6
f 550/4/6 551/4/6 555/4/6
f 555/4/6 551/4/6 556/4/6
f 552/5/6 553/5/6 558/5/6
f 558/5/6 553/5/6 559/5/6
f 556/5/6 557/5/6 560/5/6
f 560/5/6 557/5/6 561/5/6
f 562/4/6 563/4/6 566/4/6
f 566/4/6 563/4/6 567/4/6
f 564/4/6 565/4/6 570/4/6
f 570/4/6 565/4/6 571/4/6
f 567/4/6 568/4/6 572/4/6
f 572/4/6 568/4/6 573/4/6
f 569/4/6 570/4/6 574/4/6
f 574/4/6 570/4/6 575/4/6
f 576/3/6 577/3/6 579/3/6
f 579/3/6 577/3/6 580/3/6
f 578/3/6 579/3/6 582/3/6
f 582/3/6 579/3/6 583/3/6
f 580/3/6 581/3/6 584/3/6
f 584/3/6 581/3/6 585/3/6
f 586/4/6 587/4/6 590/4/6
f 590/4/6 587/4/6 591/4/6
f 588/4/6 589/4/6 594/4/6
f 594/4/6 589/4/6 595/4/6
f 591/4/6 592/4/6 596/4/6
f 596/4/6 592/4/6 597/4/6
f 593/4/6 594/4/6 598/4/6
f 598/4/6 594/4/6 599/4/6
f 597/4/6 598/4/6 600/4/6
f 600/4/6 598/4/6 601/4/6
f 602/3/6 603/3/6 604/3/6
f 604/3/6 603/3/6 605/3/6
f 606/4/6 607/4/6 609/4/6
f 609/4/6 607/4/6 610/4/6
f 609/4/6 610/4/6 612/4/6
f 610/4/6 611/4/6 612/4/6
f 608/4/6 609/4/6 612/4/6
f 612/4/6 611/4/6 613/4/6
f 613/4/6 611/4/6 614/4/6
f 614/4/6 611/4/6 615/4/6
f 613/4/6 614/4/6 616/4/6
f 616/4/6 614/4/6 617/4/6
f 618/4/6 619/4/6 620/4/6
f 620/4/6 619/4/6 621/4/6
f 622/8/6 623/8/6 627/8/6
f 623/7/6 624/7/6 628/7/6
f 627/8/6 623/8/6 628/8/6
f 627/7/6 628/7/6 629/7/6
f 628/7/6 624/7/6 630/7/6
f 629/7/6 628/7/6 630/7/6
f 625/7/6 626/7/6 631/7/6
f 631/7/6 626/7/6 632/7/6
